<svg width="40" height="40" viewBox="0 0 40 40" fill="none" xmlns="http://www.w3.org/2000/svg">
<g id="Iconly/Bold/Home">
<g id="Home">
<path id="Home_2" d="M14.2696 37.5467V31.4312C14.2696 29.8701 15.5443 28.6046 17.1169 28.6046H22.8652C23.6204 28.6046 24.3446 28.9024 24.8786 29.4325C25.4125 29.9626 25.7125 30.6816 25.7125 31.4312V37.5467C25.7078 38.1957 25.9641 38.8198 26.4247 39.2804C26.8853 39.741 27.5121 40 28.1659 40H32.0876C33.9193 40.0047 35.6775 39.2857 36.9743 38.0016C38.2712 36.7175 39 34.974 39 33.1556V15.7337C38.9999 14.2649 38.3441 12.8717 37.2092 11.9293L23.868 1.35174C21.5473 -0.502877 18.2222 -0.442996 15.9708 1.49396L2.93402 11.9293C1.74548 12.8439 1.0351 14.2413 1 15.7337V33.1379C1 36.9277 4.09476 40 7.91235 40H11.7446C13.1025 40 14.206 38.9124 14.2158 37.5645L14.2696 37.5467Z" fill="white"/>
</g>
</g>
</svg>
