<svg width="40" height="40" viewBox="0 0 40 40" fill="none" xmlns="http://www.w3.org/2000/svg">
<g id="Iconly/Bold/Location">
<g id="Location">
<path id="Location_2" fill-rule="evenodd" clip-rule="evenodd" d="M3 16.6355C3 7.43578 10.6878 0 19.9869 0C29.3122 0 37 7.43578 37 16.6355C37 21.2714 35.314 25.5753 32.539 29.2232C29.4776 33.247 25.7043 36.7529 21.4571 39.5049C20.485 40.1408 19.6077 40.1888 18.5409 39.5049C14.2695 36.7529 10.4962 33.247 7.461 29.2232C4.68397 25.5753 3 21.2714 3 16.6355ZM14.3884 17.1535C14.3884 20.2354 16.9033 22.6593 19.9869 22.6593C23.0725 22.6593 25.6115 20.2354 25.6115 17.1535C25.6115 14.0956 23.0725 11.5537 19.9869 11.5537C16.9033 11.5537 14.3884 14.0956 14.3884 17.1535Z" fill="white"/>
</g>
</g>
</svg>
