<svg width="32" height="34" viewBox="0 0 32 34" fill="none" xmlns="http://www.w3.org/2000/svg">
<path d="M11.2246 31.6222V26.526C11.2246 25.2251 12.2869 24.1705 13.5974 24.1705H18.3876C19.0169 24.1705 19.6205 24.4187 20.0654 24.8604C20.5104 25.3022 20.7604 25.9013 20.7604 26.526V31.6222C20.7564 32.1631 20.9701 32.6831 21.3539 33.067C21.7378 33.4508 22.26 33.6667 22.8049 33.6667H26.073C27.5994 33.6706 29.0645 33.0714 30.1452 32.0013C31.2259 30.9313 31.8333 29.4783 31.8333 27.963V13.4448C31.8333 12.2208 31.2867 11.0597 30.341 10.2745L19.2233 1.45978C17.2894 -0.085728 14.5185 -0.0358273 12.6423 1.5783L1.77831 10.2745C0.78786 11.0366 0.19588 12.2011 0.166626 13.4448V27.9482C0.166626 31.1064 2.7456 33.6667 5.92691 33.6667H9.12044C10.252 33.6667 11.1716 32.7604 11.1798 31.6371L11.2246 31.6222Z" fill="white"/>
</svg>
