<svg width="111" height="67" viewBox="0 0 111 67" fill="none" xmlns="http://www.w3.org/2000/svg">
<path d="M81.938 5.172V7.09H79.334V15H76.94V7.09H74.336V5.172H81.938ZM91.0035 10.968C91.0035 11.192 90.9895 11.4253 90.9615 11.668H85.5435C85.5808 12.1533 85.7348 12.5267 86.0055 12.788C86.2855 13.04 86.6262 13.166 87.0275 13.166C87.6248 13.166 88.0402 12.914 88.2735 12.41H90.8215C90.6908 12.9233 90.4528 13.3853 90.1075 13.796C89.7715 14.2067 89.3468 14.5287 88.8335 14.762C88.3202 14.9953 87.7462 15.112 87.1115 15.112C86.3462 15.112 85.6648 14.9487 85.0675 14.622C84.4702 14.2953 84.0035 13.8287 83.6675 13.222C83.3315 12.6153 83.1635 11.906 83.1635 11.094C83.1635 10.282 83.3268 9.57267 83.6535 8.966C83.9895 8.35933 84.4562 7.89267 85.0535 7.566C85.6508 7.23933 86.3368 7.076 87.1115 7.076C87.8675 7.076 88.5395 7.23467 89.1275 7.552C89.7155 7.86933 90.1728 8.322 90.4995 8.91C90.8355 9.498 91.0035 10.184 91.0035 10.968ZM88.5535 10.338C88.5535 9.92733 88.4135 9.60067 88.1335 9.358C87.8535 9.11533 87.5035 8.994 87.0835 8.994C86.6822 8.994 86.3415 9.11067 86.0615 9.344C85.7908 9.57733 85.6228 9.90867 85.5575 10.338H88.5535ZM92.2904 11.094C92.2904 10.282 92.4538 9.57267 92.7804 8.966C93.1164 8.35933 93.5784 7.89267 94.1664 7.566C94.7638 7.23933 95.4451 7.076 96.2104 7.076C97.1904 7.076 98.0071 7.33267 98.6604 7.846C99.3231 8.35933 99.7571 9.08267 99.9624 10.016H97.4144C97.1998 9.41867 96.7844 9.12 96.1684 9.12C95.7298 9.12 95.3798 9.29267 95.1184 9.638C94.8571 9.974 94.7264 10.4593 94.7264 11.094C94.7264 11.7287 94.8571 12.2187 95.1184 12.564C95.3798 12.9 95.7298 13.068 96.1684 13.068C96.7844 13.068 97.1998 12.7693 97.4144 12.172H99.9624C99.7571 13.0867 99.3231 13.8053 98.6604 14.328C97.9978 14.8507 97.1811 15.112 96.2104 15.112C95.4451 15.112 94.7638 14.9487 94.1664 14.622C93.5784 14.2953 93.1164 13.8287 92.7804 13.222C92.4538 12.6153 92.2904 11.906 92.2904 11.094ZM106.545 7.104C107.441 7.104 108.16 7.40267 108.701 8C109.242 8.588 109.513 9.4 109.513 10.436V15H107.133V10.758C107.133 10.2353 106.998 9.82933 106.727 9.54C106.456 9.25067 106.092 9.106 105.635 9.106C105.178 9.106 104.814 9.25067 104.543 9.54C104.272 9.82933 104.137 10.2353 104.137 10.758V15H101.743V4.64H104.137V8.238C104.38 7.89267 104.711 7.61733 105.131 7.412C105.551 7.20667 106.022 7.104 106.545 7.104Z" fill="#121212"/>
<path d="M0 0H33.5C52.0015 0 67 14.9985 67 33.5V33.5C67 52.0015 52.0015 67 33.5 67V67C14.9985 67 0 52.0015 0 33.5V0Z" fill="#051E3D"/>
<circle cx="22.3332" cy="22.3333" r="11.1666" fill="white"/>
</svg>
