<svg width="40" height="40" viewBox="0 0 40 40" fill="none" xmlns="http://www.w3.org/2000/svg">
<g id="Iconly/Bold/Shield Done">
<g id="Shield Done">
<path id="Shield Done_2" fill-rule="evenodd" clip-rule="evenodd" d="M19.4562 39.8273C19.6777 39.943 19.9253 40.0019 20.173 39.9999C20.4206 39.9979 20.6663 39.9371 20.8898 39.8195L28.0255 36.0049C30.0491 34.9263 31.6337 33.7201 32.87 32.3159C35.558 29.2564 37.0258 25.3516 36.9996 21.3253L36.915 8.04397C36.907 6.51422 35.9023 5.14922 34.4163 4.65303L21.1415 0.199128C20.3421 -0.0715185 19.4663 -0.0656348 18.681 0.212857L5.45649 4.82562C3.9786 5.34142 2.992 6.71623 3.00005 8.24793L3.08461 21.5194C3.11079 25.5517 4.62895 29.4388 7.36124 32.4669C8.60959 33.8515 10.2083 35.04 12.254 36.101L19.4562 39.8273ZM17.5671 24.2178C17.8651 24.5042 18.2517 24.6454 18.6383 24.6415C19.0249 24.6395 19.4095 24.4944 19.7034 24.2041L27.5016 16.5162C28.0876 15.9376 28.0815 15.008 27.4896 14.4373C26.8956 13.8666 25.9392 13.8705 25.3533 14.4491L18.6162 21.0897L15.8577 18.4382C15.2637 17.8674 14.3093 17.8733 13.7214 18.4519C13.1355 19.0304 13.1415 19.9601 13.7355 20.5308L17.5671 24.2178Z" fill="white"/>
</g>
</g>
</svg>
