<svg width="34" height="34" viewBox="0 0 34 34" fill="none" xmlns="http://www.w3.org/2000/svg">
<path fill-rule="evenodd" clip-rule="evenodd" d="M4.56646 0.333336H10.1998C12.5498 0.333336 14.4331 2.25 14.4331 4.60167V10.2833C14.4331 12.65 12.5498 14.55 10.1998 14.55H4.56646C2.23313 14.55 0.33313 12.65 0.33313 10.2833V4.60167C0.33313 2.25 2.23313 0.333336 4.56646 0.333336ZM4.56646 19.4495H10.1998C12.5498 19.4495 14.4331 21.3512 14.4331 23.7178V29.3995C14.4331 31.7495 12.5498 33.6662 10.1998 33.6662H4.56646C2.23313 33.6662 0.33313 31.7495 0.33313 29.3995V23.7178C0.33313 21.3512 2.23313 19.4495 4.56646 19.4495ZM29.4333 0.333336H23.8C21.45 0.333336 19.5667 2.25 19.5667 4.60167V10.2833C19.5667 12.65 21.45 14.55 23.8 14.55H29.4333C31.7667 14.55 33.6667 12.65 33.6667 10.2833V4.60167C33.6667 2.25 31.7667 0.333336 29.4333 0.333336ZM23.8 19.4495H29.4333C31.7667 19.4495 33.6667 21.3512 33.6667 23.7178V29.3995C33.6667 31.7495 31.7667 33.6662 29.4333 33.6662H23.8C21.45 33.6662 19.5667 31.7495 19.5667 29.3995V23.7178C19.5667 21.3512 21.45 19.4495 23.8 19.4495Z" fill="white"/>
</svg>
