<svg width="40" height="30" viewBox="0 0 40 30" fill="none" xmlns="http://www.w3.org/2000/svg">
<path fill-rule="evenodd" clip-rule="evenodd" d="M27.5606 7.69609C27.5606 11.9682 24.1548 15.3938 19.9073 15.3938C15.6599 15.3938 12.2541 11.9682 12.2541 7.69609C12.2541 3.42231 15.6599 0 19.9073 0C24.1548 0 27.5606 3.42231 27.5606 7.69609ZM19.9073 29.0909C13.6688 29.0909 8.34195 28.1019 8.34195 24.1458C8.34195 20.188 13.6346 19.163 19.9073 19.163C26.1458 19.163 31.4726 20.152 31.4726 24.1097C31.4726 28.0659 26.18 29.0909 19.9073 29.0909ZM30.8311 7.83495C30.8311 10.0128 30.1815 12.0416 29.0419 13.7282C28.9247 13.9018 29.0289 14.1359 29.2356 14.1719C29.5205 14.2211 29.8152 14.2489 30.1147 14.2571C33.1021 14.3357 35.7835 12.4018 36.5242 9.49043C37.6215 5.16588 34.3997 1.28344 30.2971 1.28344C29.851 1.28344 29.4245 1.33093 29.0093 1.41608C28.9524 1.42918 28.8921 1.45538 28.8596 1.50614C28.8205 1.56836 28.8498 1.65187 28.8889 1.70591C30.1213 3.44326 30.8311 5.56215 30.8311 7.83495ZM35.7786 17.2956C37.7859 17.6902 39.1062 18.4958 39.6532 19.6666C40.1156 20.6278 40.1156 21.7429 39.6532 22.7025C38.8164 24.5184 36.1188 25.1014 35.0704 25.252C34.8539 25.2848 34.6797 25.0965 34.7025 24.8787C35.2381 19.8468 30.9776 17.461 29.8754 16.9124C29.8282 16.8879 29.8185 16.8502 29.8234 16.8273C29.8266 16.8109 29.8461 16.7847 29.882 16.7798C32.267 16.7356 34.8311 17.0631 35.7786 17.2956ZM9.88569 14.2569C10.1852 14.2487 10.4783 14.2225 10.7648 14.1718C10.9716 14.1358 11.0758 13.9016 10.9585 13.728C9.81894 12.0414 9.16937 10.0126 9.16937 7.83479C9.16937 5.56199 9.87918 3.4431 11.1116 1.70575C11.1506 1.65172 11.1783 1.56821 11.1409 1.50598C11.1083 1.45686 11.0465 1.42902 10.9911 1.41592C10.5743 1.33077 10.1478 1.28329 9.70172 1.28329C5.59915 1.28329 2.37733 5.16572 3.47623 9.49027C4.21698 12.4017 6.8983 14.3355 9.88569 14.2569ZM10.1763 16.8263C10.1811 16.8508 10.1714 16.8869 10.1258 16.9131C9.022 17.4616 4.76151 19.8474 5.29712 24.8777C5.31991 25.0971 5.14734 25.2838 4.93082 25.2527C3.88238 25.102 1.18478 24.5191 0.347986 22.7032C-0.115995 21.742 -0.115995 20.6285 0.347986 19.6673C0.894996 18.4965 2.21368 17.6909 4.22101 17.2946C5.17014 17.0637 7.73262 16.7362 10.1193 16.7804C10.1551 16.7853 10.173 16.8115 10.1763 16.8263Z" fill="white"/>
</svg>
