<svg width="735" height="875" viewBox="0 0 735 875" fill="none" xmlns="http://www.w3.org/2000/svg">
<mask id="path-1-inside-1" fill="white">
<path fill-rule="evenodd" clip-rule="evenodd" d="M437.5 0H0V437.5C0 679.125 195.875 875 437.5 875C679.125 875 875 679.125 875 437.5C875 195.875 679.125 0 437.5 0Z"/>
</mask>
<path d="M0 0V-0.25H-0.25V0H0ZM-0.25 0V1.98864H0.25V0H-0.25ZM-0.25 5.96591V9.94318H0.25V5.96591H-0.25ZM-0.25 13.9205V17.8977H0.25V13.9205H-0.25ZM-0.25 21.875V25.8523H0.25V21.875H-0.25ZM-0.25 29.8295V33.8068H0.25V29.8295H-0.25ZM-0.25 37.7841V41.7614H0.25V37.7841H-0.25ZM-0.25 45.7386V49.7159H0.25V45.7386H-0.25ZM-0.25 53.6932V57.6704H0.25V53.6932H-0.25ZM-0.25 61.6477V65.625H0.25V61.6477H-0.25ZM-0.25 69.6023V73.5795H0.25V69.6023H-0.25ZM-0.25 77.5568V81.5341H0.25V77.5568H-0.25ZM-0.25 85.5114V89.4886H0.25V85.5114H-0.25ZM-0.25 93.4659V97.4432H0.25V93.4659H-0.25ZM-0.25 101.42V105.398H0.25V101.42H-0.25ZM-0.25 109.375V113.352H0.25V109.375H-0.25ZM-0.25 117.33V121.307H0.25V117.33H-0.25ZM-0.25 125.284V129.261H0.25V125.284H-0.25ZM-0.25 133.239V137.216H0.25V133.239H-0.25ZM-0.25 141.193V145.17H0.25V141.193H-0.25ZM-0.25 149.148V153.125H0.25V149.148H-0.25ZM-0.25 157.102V161.08H0.25V157.102H-0.25ZM-0.25 165.057V169.034H0.25V165.057H-0.25ZM-0.25 173.011V176.989H0.25V173.011H-0.25ZM-0.25 180.966V184.943H0.25V180.966H-0.25ZM-0.25 188.921V192.898H0.25V188.921H-0.25ZM-0.25 196.875V200.852H0.25V196.875H-0.25ZM-0.25 204.83V208.807H0.25V204.83H-0.25ZM-0.25 212.784V216.762H0.25V212.784H-0.25ZM-0.25 220.739V224.716H0.25V220.739H-0.25ZM-0.25 228.693V232.671H0.25V228.693H-0.25ZM-0.25 236.648V240.625H0.25V236.648H-0.25ZM-0.25 244.602V248.58H0.25V244.602H-0.25ZM-0.25 252.557V256.534H0.25V252.557H-0.25ZM-0.25 260.512V264.489H0.25V260.512H-0.25ZM-0.25 268.466V272.443H0.25V268.466H-0.25ZM-0.25 276.421V280.398H0.25V276.421H-0.25ZM-0.25 284.375V288.352H0.25V284.375H-0.25ZM-0.25 292.33V296.307H0.25V292.33H-0.25ZM-0.25 300.284V304.261H0.25V300.284H-0.25ZM-0.25 308.239V312.216H0.25V308.239H-0.25ZM-0.25 316.193V320.171H0.25V316.193H-0.25ZM-0.25 324.148V328.125H0.25V324.148H-0.25ZM-0.25 332.102V336.08H0.25V332.102H-0.25ZM-0.25 340.057V344.034H0.25V340.057H-0.25ZM-0.25 348.011V351.989H0.25V348.011H-0.25ZM-0.25 355.966V359.943H0.25V355.966H-0.25ZM-0.25 363.92V367.898H0.25V363.92H-0.25ZM-0.25 371.875V375.852H0.25V371.875H-0.25ZM-0.25 379.829V383.807H0.25V379.829H-0.25ZM-0.25 387.784V391.761H0.25V387.784H-0.25ZM-0.25 395.739V399.716H0.25V395.739H-0.25ZM-0.25 403.693V407.67H0.25V403.693H-0.25ZM-0.25 411.648V415.625H0.25V411.648H-0.25ZM-0.25 419.602V423.579H0.25V419.602H-0.25ZM-0.25 427.557V431.534H0.25V427.557H-0.25ZM-0.25 435.511V437.5H0.25V435.511H-0.25ZM-0.25 437.5C-0.25 438.17 -0.248494 438.84 -0.245485 439.51L0.25451 439.507C0.251504 438.839 0.25 438.169 0.25 437.5H-0.25ZM-0.209421 443.522C-0.191404 444.858 -0.167402 446.193 -0.137439 447.526L0.362435 447.515C0.332505 446.183 0.30853 444.85 0.290534 443.516L-0.209421 443.522ZM-0.0296945 451.521C0.012164 452.852 0.0599575 454.18 0.11366 455.508L0.613252 455.487C0.559609 454.162 0.51187 452.834 0.470058 451.506L-0.0296945 451.521ZM0.292472 459.485C0.358573 460.821 0.430668 462.156 0.50873 463.489L1.00788 463.46C0.929902 462.128 0.857888 460.795 0.791861 459.46L0.292472 459.485ZM0.76118 467.49C0.851297 468.822 0.947371 470.152 1.04938 471.481L1.54791 471.442C1.44602 470.115 1.35005 468.786 1.26004 467.456L0.76118 467.49ZM1.37316 475.461C1.487 476.787 1.60675 478.11 1.73237 479.432L2.23013 479.385C2.10465 478.065 1.98504 476.742 1.87133 475.419L1.37316 475.461ZM2.12799 483.404C2.26669 484.735 2.41136 486.064 2.56196 487.391L3.05877 487.335C2.90834 486.009 2.76384 484.681 2.6253 483.352L2.12799 483.404ZM3.03155 491.368C3.194 492.692 3.36236 494.014 3.53661 495.334L4.03231 495.269C3.85826 493.95 3.6901 492.63 3.52783 491.307L3.03155 491.368ZM4.07696 499.289C4.26294 500.605 4.45478 501.92 4.65244 503.232L5.14687 503.158C4.94943 501.847 4.75781 500.534 4.57204 499.219L4.07696 499.289ZM5.26697 507.19C5.47811 508.51 5.69516 509.828 5.91808 511.144L6.41106 511.06C6.18839 509.746 5.97159 508.429 5.76069 507.111L5.26697 507.19ZM6.60443 515.085C6.83906 516.397 7.07954 517.707 7.32584 519.015L7.8172 518.922C7.57119 517.616 7.33098 516.308 7.09662 514.997L6.60443 515.085ZM8.08215 522.932C8.3406 524.238 8.60487 525.543 8.87492 526.845L9.3645 526.743C9.09476 525.443 8.8308 524.14 8.57264 522.835L8.08215 522.932ZM9.7069 530.766C9.99005 532.071 10.279 533.373 10.5738 534.674L11.0614 534.563C10.767 533.264 10.4784 531.963 10.1955 530.66L9.7069 530.766ZM11.4754 538.569C11.7817 539.865 12.0938 541.159 12.4116 542.45L12.8971 542.331C12.5797 541.041 12.268 539.748 11.962 538.454L11.4754 538.569ZM13.3822 546.318C13.7133 547.612 14.0501 548.904 14.3927 550.194L14.8759 550.065C14.5338 548.777 14.1973 547.487 13.8666 546.194L13.3822 546.318ZM15.4387 554.059C15.793 555.345 16.1532 556.629 16.519 557.91L16.9997 557.773C16.6344 556.493 16.2747 555.211 15.9207 553.926L15.4387 554.059ZM17.6334 561.747C18.0105 563.024 18.3934 564.298 18.7818 565.569L19.26 565.423C18.872 564.153 18.4896 562.88 18.1129 561.605L17.6334 561.747ZM19.9671 569.386C20.3691 570.66 20.7767 571.931 21.19 573.2L21.6654 573.045C21.2526 571.778 20.8454 570.508 20.4439 569.236L19.9671 569.386ZM22.4468 576.999C22.8713 578.263 23.3015 579.524 23.7372 580.782L24.2097 580.618C23.7744 579.361 23.3448 578.102 22.9207 576.84L22.4468 576.999ZM25.0611 584.55C25.5081 585.803 25.9607 587.054 26.4188 588.303L26.8882 588.13C26.4306 586.883 25.9785 585.634 25.532 584.382L25.0611 584.55ZM27.8159 592.057C28.2872 593.305 28.764 594.551 29.2464 595.794L29.7125 595.613C29.2307 594.372 28.7545 593.127 28.2837 591.88L27.8159 592.057ZM30.7099 599.515C31.2032 600.753 31.7021 601.988 32.2063 603.22L32.6691 603.03C32.1654 601.8 31.6671 600.566 31.1744 599.33L30.7099 599.515ZM33.7355 606.907C34.2522 608.137 34.7744 609.364 35.302 610.589L35.7612 610.391C35.2342 609.168 34.7126 607.942 34.1965 606.714L33.7355 606.907ZM36.9028 614.257C37.4418 615.477 37.9863 616.694 38.5361 617.908L38.9915 617.702C38.4424 616.489 37.8986 615.273 37.3601 614.055L36.9028 614.257ZM40.2016 621.541C40.7622 622.749 41.3281 623.954 41.8993 625.156L42.3509 624.941C41.7803 623.741 41.2151 622.537 40.6552 621.33L40.2016 621.541ZM43.6313 628.758C44.2151 629.958 44.8043 631.155 45.3988 632.349L45.8463 632.126C45.2526 630.934 44.6641 629.738 44.0809 628.539L43.6313 628.758ZM47.198 635.922C47.803 637.109 48.4133 638.294 49.0288 639.475L49.4722 639.244C48.8574 638.064 48.2478 636.881 47.6435 635.695L47.198 635.922ZM50.891 643.01C51.5171 644.186 52.1484 645.358 52.7849 646.527L53.2241 646.288C52.5883 645.12 51.9577 643.949 51.3323 642.775L50.891 643.01ZM54.7149 650.033C55.3634 651.199 56.0171 652.361 56.6759 653.52L57.1106 653.273C56.4525 652.115 55.7996 650.954 55.1518 649.79L54.7149 650.033ZM58.6677 656.987C59.3368 658.139 60.0109 659.288 60.6902 660.434L61.1203 660.179C60.4418 659.034 59.7684 657.887 59.1001 656.736L58.6677 656.987ZM62.7431 663.86C63.4337 665.001 64.1294 666.139 64.8302 667.273L65.2556 667.01C64.5556 665.877 63.8607 664.741 63.1708 663.601L62.7431 663.86ZM66.9484 670.666C67.6595 671.794 68.3756 672.918 69.0967 674.039L69.5172 673.769C68.7969 672.649 68.0816 671.526 67.3714 670.4L66.9484 670.666ZM71.2748 677.391C72.0057 678.504 72.7417 679.615 73.4825 680.721L73.898 680.443C73.158 679.338 72.4229 678.229 71.6928 677.116L71.2748 677.391ZM75.7219 684.033C76.4739 685.135 77.2308 686.232 77.9925 687.327L78.4029 687.041C77.642 685.948 76.886 684.852 76.1348 683.751L75.7219 684.033ZM80.2923 690.598C81.0638 691.685 81.8401 692.768 82.6212 693.847L83.0262 693.554C82.246 692.476 81.4706 691.394 80.7001 690.309L80.2923 690.598ZM84.9788 697.075C85.7698 698.147 86.5655 699.216 87.3659 700.28L87.7656 699.98C86.9661 698.916 86.1712 697.849 85.3812 696.778L84.9788 697.075ZM89.7839 703.467C90.5946 704.525 91.41 705.579 92.2301 706.63L92.6243 706.322C91.8051 705.273 90.9906 704.22 90.1808 703.163L89.7839 703.467ZM94.7045 709.771C95.534 710.813 96.3681 711.852 97.2069 712.888L97.5954 712.573C96.7576 711.539 95.9244 710.501 95.0959 709.459L94.7045 709.771ZM99.7371 715.981C100.586 717.01 101.439 718.034 102.297 719.054L102.68 718.732C101.823 717.713 100.97 716.69 100.123 715.663L99.7371 715.981ZM104.884 722.103C105.751 723.115 106.623 724.124 107.499 725.128L107.876 724.799C107.001 723.796 106.13 722.789 105.264 721.778L104.884 722.103ZM110.141 728.129C111.026 729.125 111.915 730.117 112.809 731.105L113.18 730.769C112.287 729.783 111.398 728.792 110.514 727.797L110.141 728.129ZM115.505 734.058C116.408 735.038 117.316 736.014 118.228 736.986L118.593 736.644C117.682 735.673 116.775 734.698 115.873 733.719L115.505 734.058ZM120.977 739.889C121.898 740.852 122.823 741.812 123.753 742.767L124.111 742.418C123.182 741.464 122.258 740.506 121.339 739.543L120.977 739.889ZM126.554 745.619C127.492 746.566 128.434 747.508 129.381 748.446L129.733 748.091C128.787 747.154 127.846 746.213 126.909 745.267L126.554 745.619ZM132.233 751.248C133.188 752.177 134.148 753.102 135.111 754.023L135.457 753.661C134.494 752.742 133.536 751.818 132.582 750.889L132.233 751.248ZM138.014 756.772C138.986 757.684 139.962 758.592 140.943 759.495L141.281 759.127C140.302 758.225 139.327 757.318 138.357 756.407L138.014 756.772ZM143.895 762.191C144.883 763.085 145.875 763.974 146.871 764.859L147.204 764.486C146.208 763.602 145.218 762.713 144.231 761.82L143.895 762.191ZM149.872 767.501C150.876 768.377 151.885 769.249 152.897 770.116L153.222 769.736C152.211 768.87 151.204 767.999 150.201 767.124L149.872 767.501ZM155.946 772.703C156.966 773.561 157.99 774.414 159.019 775.263L159.337 774.877C158.31 774.03 157.287 773.177 156.268 772.32L155.946 772.703ZM162.112 777.793C163.148 778.632 164.187 779.466 165.23 780.296L165.541 779.904C164.499 779.076 163.461 778.242 162.427 777.405L162.112 777.793ZM168.37 782.77C169.421 783.59 170.475 784.406 171.533 785.216L171.838 784.819C170.78 784.01 169.727 783.195 168.678 782.376L168.37 782.77ZM174.72 787.634C175.785 788.435 176.853 789.23 177.926 790.021L178.222 789.619C177.151 788.829 176.084 788.034 175.02 787.234L174.72 787.634ZM181.153 792.379C182.232 793.16 183.315 793.936 184.402 794.708L184.692 794.3C183.606 793.529 182.524 792.754 181.446 791.974L181.153 792.379ZM187.674 797.008C188.768 797.769 189.865 798.526 190.967 799.278L191.249 798.865C190.149 798.114 189.052 797.358 187.959 796.597L187.674 797.008ZM194.279 801.518C195.386 802.258 196.496 802.994 197.609 803.725L197.884 803.307C196.771 802.577 195.662 801.842 194.557 801.102L194.279 801.518ZM200.961 805.903C202.082 806.624 203.206 807.341 204.334 808.052L204.6 807.629C203.474 806.918 202.351 806.203 201.232 805.483L200.961 805.903ZM207.727 810.17C208.861 810.871 209.999 811.566 211.14 812.257L211.399 811.829C210.259 811.139 209.123 810.444 207.99 809.745L207.727 810.17ZM214.566 814.31C215.712 814.989 216.861 815.663 218.013 816.332L218.264 815.9C217.113 815.232 215.966 814.558 214.822 813.88L214.566 814.31ZM221.48 818.324C222.639 818.983 223.801 819.637 224.967 820.285L225.21 819.848C224.046 819.2 222.885 818.547 221.727 817.889L221.48 818.324ZM228.473 822.215C229.642 822.852 230.814 823.483 231.99 824.109L232.225 823.668C231.051 823.042 229.88 822.412 228.712 821.776L228.473 822.215ZM235.525 825.971C236.706 826.587 237.891 827.197 239.078 827.802L239.305 827.357C238.119 826.752 236.936 826.143 235.756 825.528L235.525 825.971ZM242.651 829.601C243.845 830.196 245.042 830.785 246.242 831.369L246.461 830.919C245.262 830.336 244.066 829.747 242.874 829.154L242.651 829.601ZM249.844 833.101C251.046 833.672 252.251 834.238 253.459 834.798L253.67 834.345C252.463 833.785 251.259 833.22 250.059 832.649L249.844 833.101ZM257.092 836.464C258.306 837.014 259.523 837.558 260.743 838.097L260.945 837.64C259.726 837.101 258.511 836.558 257.298 836.008L257.092 836.464ZM264.411 839.698C265.635 840.226 266.863 840.748 268.093 841.264L268.286 840.803C267.058 840.287 265.832 839.766 264.609 839.239L264.411 839.698ZM271.78 842.794C273.012 843.298 274.247 843.797 275.485 844.29L275.67 843.826C274.434 843.333 273.2 842.835 271.97 842.331L271.78 842.794ZM279.206 845.754C280.449 846.236 281.695 846.713 282.943 847.184L283.12 846.716C281.873 846.245 280.628 845.769 279.387 845.287L279.206 845.754ZM286.697 848.581C287.946 849.039 289.197 849.492 290.45 849.939L290.618 849.468C289.366 849.021 288.116 848.569 286.87 848.112L286.697 848.581ZM294.218 851.263C295.476 851.699 296.737 852.129 298.001 852.553L298.16 852.079C296.898 851.655 295.639 851.226 294.382 850.79L294.218 851.263ZM301.8 853.81C303.069 854.223 304.34 854.631 305.614 855.033L305.764 854.556C304.492 854.155 303.222 853.747 301.955 853.335L301.8 853.81ZM309.431 856.218C310.702 856.607 311.976 856.989 313.253 857.367L313.395 856.887C312.12 856.51 310.847 856.128 309.577 855.74L309.431 856.218ZM317.09 858.481C318.371 858.847 319.655 859.207 320.941 859.561L321.074 859.079C319.789 858.725 318.507 858.366 317.227 858L317.09 858.481ZM324.806 860.607C326.096 860.95 327.388 861.287 328.682 861.618L328.806 861.133C327.513 860.803 326.223 860.466 324.935 860.124L324.806 860.607ZM332.55 862.588C333.841 862.906 335.135 863.218 336.431 863.525L336.546 863.038C335.252 862.732 333.959 862.42 332.669 862.103L332.55 862.588ZM340.326 864.426C341.627 864.721 342.929 865.01 344.234 865.293L344.34 864.805C343.037 864.522 341.736 864.233 340.437 863.939L340.326 864.426ZM348.155 866.125C349.458 866.395 350.762 866.659 352.068 866.918L352.165 866.427C350.86 866.169 349.558 865.905 348.257 865.636L348.155 866.125ZM355.986 867.674C357.293 867.92 358.603 868.161 359.915 868.396L360.003 867.903C358.693 867.669 357.384 867.429 356.078 867.183L355.986 867.674ZM363.857 869.082C365.173 869.305 366.49 869.522 367.81 869.733L367.889 869.239C366.571 869.028 365.255 868.812 363.94 868.589L363.857 869.082ZM371.768 870.348C373.08 870.545 374.395 870.737 375.711 870.923L375.781 870.428C374.466 870.242 373.153 870.051 371.842 869.853L371.768 870.348ZM379.666 871.463C380.986 871.638 382.308 871.806 383.632 871.969L383.693 871.472C382.371 871.31 381.05 871.142 379.732 870.968L379.666 871.463ZM387.609 872.438C388.937 872.589 390.266 872.733 391.597 872.872L391.649 872.375C390.319 872.236 388.991 872.092 387.666 871.941L387.609 872.438ZM395.568 873.268C396.89 873.393 398.214 873.513 399.539 873.627L399.582 873.129C398.258 873.015 396.936 872.895 395.616 872.77L395.568 873.268ZM403.52 873.951C404.849 874.053 406.179 874.149 407.511 874.239L407.544 873.74C406.214 873.65 404.885 873.554 403.558 873.452L403.52 873.951ZM411.511 874.491C412.845 874.569 414.179 874.641 415.516 874.708L415.54 874.208C414.206 874.142 412.872 874.07 411.541 873.992L411.511 874.491ZM419.493 874.886C420.82 874.94 422.149 874.988 423.479 875.03L423.495 874.53C422.166 874.488 420.839 874.44 419.513 874.387L419.493 874.886ZM427.474 875.137C428.808 875.167 430.142 875.191 431.478 875.209L431.485 874.709C430.151 874.691 428.817 874.667 427.486 874.638L427.474 875.137ZM435.491 875.245C436.16 875.248 436.83 875.25 437.5 875.25V874.75C436.831 874.75 436.162 874.748 435.493 874.745L435.491 875.245ZM437.5 875.25C438.17 875.25 438.84 875.248 439.51 875.245L439.507 874.745C438.839 874.748 438.169 874.75 437.5 874.75V875.25ZM443.522 875.209C444.858 875.191 446.193 875.167 447.526 875.137L447.515 874.638C446.183 874.667 444.85 874.691 443.516 874.709L443.522 875.209ZM451.521 875.03C452.852 874.988 454.18 874.94 455.508 874.886L455.487 874.387C454.162 874.44 452.834 874.488 451.506 874.53L451.521 875.03ZM459.485 874.708C460.821 874.641 462.156 874.569 463.489 874.491L463.46 873.992C462.128 874.07 460.795 874.142 459.46 874.208L459.485 874.708ZM467.49 874.239C468.822 874.149 470.152 874.053 471.481 873.951L471.442 873.452C470.115 873.554 468.786 873.65 467.456 873.74L467.49 874.239ZM475.461 873.627C476.787 873.513 478.11 873.393 479.432 873.268L479.385 872.77C478.065 872.895 476.742 873.015 475.419 873.129L475.461 873.627ZM483.404 872.872C484.735 872.733 486.064 872.589 487.391 872.438L487.335 871.941C486.009 872.092 484.681 872.236 483.352 872.375L483.404 872.872ZM491.368 871.968C492.692 871.806 494.014 871.638 495.334 871.463L495.269 870.968C493.95 871.142 492.63 871.31 491.307 871.472L491.368 871.968ZM499.289 870.923C500.605 870.737 501.92 870.545 503.232 870.348L503.158 869.853C501.847 870.051 500.534 870.242 499.219 870.428L499.289 870.923ZM507.19 869.733C508.51 869.522 509.828 869.305 511.144 869.082L511.06 868.589C509.746 868.812 508.429 869.028 507.111 869.239L507.19 869.733ZM515.085 868.396C516.397 868.161 517.707 867.92 519.015 867.674L518.922 867.183C517.616 867.429 516.308 867.669 514.997 867.903L515.085 868.396ZM522.932 866.918C524.238 866.659 525.543 866.395 526.845 866.125L526.743 865.635C525.443 865.905 524.14 866.169 522.835 866.427L522.932 866.918ZM530.766 865.293C532.071 865.01 533.373 864.721 534.674 864.426L534.563 863.939C533.264 864.233 531.963 864.522 530.66 864.805L530.766 865.293ZM538.569 863.525C539.865 863.218 541.159 862.906 542.45 862.588L542.331 862.103C541.041 862.42 539.748 862.732 538.454 863.038L538.569 863.525ZM546.318 861.618C547.612 861.287 548.904 860.95 550.194 860.607L550.065 860.124C548.777 860.466 547.487 860.803 546.194 861.133L546.318 861.618ZM554.059 859.561C555.345 859.207 556.629 858.847 557.91 858.481L557.773 858C556.493 858.366 555.211 858.725 553.926 859.079L554.059 859.561ZM561.747 857.367C563.024 856.989 564.298 856.607 565.569 856.218L565.423 855.74C564.153 856.128 562.88 856.51 561.605 856.887L561.747 857.367ZM569.386 855.033C570.66 854.631 571.931 854.223 573.2 853.81L573.045 853.335C571.778 853.747 570.508 854.155 569.236 854.556L569.386 855.033ZM576.999 852.553C578.263 852.129 579.524 851.699 580.782 851.263L580.618 850.79C579.361 851.226 578.102 851.655 576.84 852.079L576.999 852.553ZM584.55 849.939C585.803 849.492 587.054 849.039 588.303 848.581L588.13 848.112C586.883 848.569 585.634 849.021 584.382 849.468L584.55 849.939ZM592.057 847.184C593.305 846.713 594.551 846.236 595.794 845.754L595.613 845.287C594.372 845.769 593.127 846.246 591.88 846.716L592.057 847.184ZM599.515 844.29C600.753 843.797 601.988 843.298 603.22 842.794L603.03 842.331C601.8 842.835 600.566 843.333 599.33 843.826L599.515 844.29ZM606.907 841.265C608.137 840.748 609.364 840.226 610.589 839.698L610.391 839.239C609.168 839.766 607.942 840.287 606.714 840.804L606.907 841.265ZM614.257 838.097C615.477 837.558 616.694 837.014 617.908 836.464L617.702 836.008C616.489 836.558 615.273 837.101 614.055 837.64L614.257 838.097ZM621.541 834.798C622.749 834.238 623.954 833.672 625.156 833.101L624.941 832.649C623.741 833.22 622.537 833.785 621.33 834.345L621.541 834.798ZM628.758 831.369C629.958 830.785 631.155 830.196 632.349 829.601L632.126 829.154C630.934 829.747 629.738 830.336 628.539 830.919L628.758 831.369ZM635.922 827.802C637.109 827.197 638.294 826.587 639.475 825.971L639.244 825.528C638.064 826.143 636.881 826.752 635.695 827.357L635.922 827.802ZM643.01 824.109C644.186 823.483 645.358 822.852 646.527 822.215L646.288 821.776C645.12 822.412 643.949 823.042 642.775 823.668L643.01 824.109ZM650.033 820.285C651.199 819.637 652.361 818.983 653.52 818.324L653.273 817.889C652.115 818.547 650.954 819.2 649.79 819.848L650.033 820.285ZM656.987 816.332C658.139 815.663 659.288 814.989 660.434 814.31L660.179 813.88C659.034 814.558 657.887 815.232 656.736 815.9L656.987 816.332ZM663.86 812.257C665.001 811.566 666.139 810.871 667.273 810.17L667.01 809.744C665.877 810.444 664.741 811.139 663.601 811.829L663.86 812.257ZM670.666 808.052C671.794 807.341 672.918 806.624 674.039 805.903L673.769 805.483C672.649 806.203 671.526 806.918 670.4 807.629L670.666 808.052ZM677.391 803.725C678.504 802.994 679.615 802.258 680.721 801.517L680.443 801.102C679.338 801.842 678.229 802.577 677.116 803.307L677.391 803.725ZM684.033 799.278C685.135 798.526 686.232 797.769 687.327 797.008L687.041 796.597C685.948 797.358 684.852 798.114 683.751 798.865L684.033 799.278ZM690.598 794.708C691.685 793.936 692.768 793.16 693.847 792.379L693.554 791.974C692.476 792.754 691.394 793.529 690.309 794.3L690.598 794.708ZM697.075 790.021C698.147 789.23 699.216 788.435 700.28 787.634L699.98 787.234C698.916 788.034 697.849 788.829 696.778 789.619L697.075 790.021ZM703.467 785.216C704.525 784.405 705.579 783.59 706.63 782.77L706.322 782.376C705.273 783.195 704.22 784.009 703.163 784.819L703.467 785.216ZM709.771 780.295C710.813 779.466 711.852 778.632 712.888 777.793L712.573 777.405C711.539 778.242 710.501 779.076 709.459 779.904L709.771 780.295ZM715.981 775.263C717.01 774.414 718.034 773.561 719.054 772.703L718.732 772.32C717.713 773.177 716.69 774.03 715.663 774.877L715.981 775.263ZM722.103 770.116C723.115 769.249 724.124 768.377 725.128 767.501L724.799 767.124C723.796 767.999 722.789 768.87 721.778 769.736L722.103 770.116ZM728.129 764.859C729.125 763.974 730.117 763.085 731.105 762.191L730.769 761.82C729.783 762.713 728.792 763.602 727.797 764.486L728.129 764.859ZM734.058 759.495C735.038 758.592 736.014 757.684 736.986 756.772L736.644 756.407C735.673 757.318 734.698 758.225 733.719 759.127L734.058 759.495ZM739.889 754.023C740.852 753.102 741.812 752.177 742.767 751.247L742.418 750.889C741.464 751.818 740.506 752.742 739.543 753.661L739.889 754.023ZM745.619 748.446C746.566 747.508 747.508 746.566 748.446 745.619L748.091 745.267C747.154 746.213 746.213 747.154 745.267 748.091L745.619 748.446ZM751.248 742.767C752.177 741.812 753.102 740.852 754.023 739.889L753.661 739.543C752.742 740.506 751.818 741.464 750.889 742.418L751.248 742.767ZM756.772 736.986C757.684 736.014 758.592 735.038 759.495 734.057L759.127 733.719C758.225 734.698 757.318 735.673 756.407 736.643L756.772 736.986ZM762.191 731.105C763.085 730.117 763.974 729.125 764.859 728.129L764.486 727.797C763.602 728.792 762.713 729.782 761.82 730.769L762.191 731.105ZM767.501 725.128C768.377 724.124 769.249 723.115 770.116 722.103L769.736 721.778C768.87 722.789 767.999 723.796 767.124 724.799L767.501 725.128ZM772.703 719.054C773.561 718.034 774.414 717.01 775.263 715.981L774.877 715.663C774.03 716.69 773.177 717.713 772.32 718.732L772.703 719.054ZM777.793 712.888C778.632 711.852 779.466 710.813 780.296 709.77L779.904 709.459C779.076 710.501 778.242 711.539 777.405 712.573L777.793 712.888ZM782.77 706.63C783.59 705.579 784.406 704.525 785.216 703.467L784.819 703.162C784.01 704.22 783.195 705.273 782.376 706.322L782.77 706.63ZM787.634 700.28C788.435 699.215 789.23 698.147 790.021 697.074L789.619 696.778C788.829 697.849 788.034 698.916 787.234 699.98L787.634 700.28ZM792.379 693.847C793.16 692.768 793.936 691.685 794.708 690.598L794.3 690.308C793.529 691.394 792.754 692.476 791.974 693.554L792.379 693.847ZM797.008 687.326C797.769 686.232 798.526 685.135 799.278 684.033L798.865 683.751C798.114 684.851 797.358 685.948 796.597 687.041L797.008 687.326ZM801.518 680.721C802.258 679.614 802.994 678.504 803.725 677.391L803.307 677.116C802.577 678.229 801.842 679.338 801.102 680.443L801.518 680.721ZM805.903 674.039C806.624 672.918 807.341 671.794 808.052 670.666L807.629 670.4C806.918 671.526 806.203 672.649 805.483 673.768L805.903 674.039ZM810.17 667.273C810.871 666.139 811.566 665.001 812.257 663.86L811.829 663.601C811.139 664.741 810.444 665.877 809.745 667.01L810.17 667.273ZM814.31 660.433C814.989 659.288 815.663 658.139 816.332 656.987L815.9 656.736C815.232 657.887 814.558 659.034 813.88 660.179L814.31 660.433ZM818.324 653.52C818.983 652.361 819.637 651.199 820.285 650.033L819.848 649.79C819.2 650.954 818.547 652.115 817.889 653.273L818.324 653.52ZM822.215 646.527C822.852 645.358 823.483 644.186 824.109 643.01L823.668 642.775C823.042 643.949 822.412 645.12 821.776 646.288L822.215 646.527ZM825.971 639.475C826.587 638.294 827.197 637.109 827.802 635.922L827.357 635.695C826.752 636.881 826.143 638.064 825.528 639.244L825.971 639.475ZM829.601 632.349C830.196 631.155 830.785 629.958 831.369 628.758L830.919 628.539C830.336 629.738 829.747 630.934 829.154 632.126L829.601 632.349ZM833.101 625.156C833.672 623.954 834.238 622.749 834.798 621.541L834.345 621.331C833.785 622.537 833.22 623.741 832.649 624.941L833.101 625.156ZM836.464 617.908C837.014 616.694 837.558 615.477 838.097 614.257L837.64 614.055C837.101 615.274 836.558 616.489 836.008 617.702L836.464 617.908ZM839.698 610.589C840.226 609.365 840.748 608.137 841.264 606.907L840.803 606.714C840.287 607.942 839.766 609.168 839.239 610.391L839.698 610.589ZM842.794 603.22C843.298 601.988 843.797 600.753 844.29 599.515L843.826 599.33C843.333 600.566 842.835 601.8 842.331 603.03L842.794 603.22ZM845.754 595.794C846.236 594.551 846.713 593.305 847.184 592.057L846.716 591.88C846.245 593.127 845.769 594.372 845.287 595.613L845.754 595.794ZM848.581 588.303C849.039 587.054 849.492 585.803 849.939 584.55L849.468 584.382C849.021 585.634 848.569 586.884 848.112 588.13L848.581 588.303ZM851.263 580.782C851.699 579.524 852.129 578.263 852.553 576.999L852.079 576.84C851.655 578.102 851.226 579.361 850.79 580.618L851.263 580.782ZM853.81 573.2C854.223 571.931 854.631 570.66 855.033 569.386L854.556 569.236C854.155 570.508 853.747 571.778 853.335 573.045L853.81 573.2ZM856.218 565.569C856.607 564.298 856.989 563.024 857.367 561.747L856.887 561.605C856.51 562.88 856.128 564.153 855.74 565.423L856.218 565.569ZM858.481 557.91C858.847 556.629 859.207 555.345 859.561 554.059L859.079 553.926C858.725 555.211 858.366 556.493 858 557.773L858.481 557.91ZM860.607 550.194C860.95 548.904 861.287 547.612 861.618 546.318L861.133 546.194C860.803 547.487 860.466 548.777 860.124 550.065L860.607 550.194ZM862.588 542.45C862.906 541.159 863.218 539.865 863.525 538.569L863.038 538.454C862.732 539.748 862.42 541.041 862.103 542.331L862.588 542.45ZM864.426 534.674C864.721 533.373 865.01 532.071 865.293 530.766L864.805 530.66C864.522 531.963 864.233 533.264 863.939 534.563L864.426 534.674ZM866.125 526.845C866.395 525.542 866.659 524.238 866.918 522.932L866.427 522.835C866.169 524.14 865.905 525.442 865.636 526.743L866.125 526.845ZM867.674 519.015C867.92 517.707 868.161 516.397 868.396 515.085L867.903 514.997C867.669 516.307 867.429 517.616 867.183 518.922L867.674 519.015ZM869.082 511.143C869.305 509.827 869.522 508.51 869.733 507.19L869.239 507.111C869.028 508.429 868.812 509.745 868.589 511.06L869.082 511.143ZM870.348 503.232C870.545 501.92 870.737 500.605 870.923 499.289L870.428 499.219C870.242 500.534 870.051 501.847 869.853 503.158L870.348 503.232ZM871.463 495.334C871.638 494.014 871.806 492.692 871.969 491.368L871.472 491.307C871.31 492.629 871.142 493.95 870.968 495.268L871.463 495.334ZM872.438 487.391C872.589 486.063 872.733 484.734 872.872 483.403L872.375 483.351C872.236 484.681 872.092 486.009 871.941 487.334L872.438 487.391ZM873.268 479.432C873.393 478.11 873.513 476.786 873.627 475.461L873.129 475.418C873.015 476.742 872.895 478.064 872.77 479.384L873.268 479.432ZM873.951 471.48C874.053 470.151 874.149 468.821 874.239 467.489L873.74 467.456C873.65 468.786 873.554 470.115 873.452 471.442L873.951 471.48ZM874.491 463.489C874.569 462.155 874.641 460.821 874.708 459.484L874.208 459.46C874.142 460.794 874.07 462.128 873.992 463.459L874.491 463.489ZM874.886 455.507C874.94 454.18 874.988 452.851 875.03 451.521L874.53 451.505C874.488 452.834 874.44 454.161 874.387 455.487L874.886 455.507ZM875.137 447.526C875.167 446.192 875.191 444.858 875.209 443.522L874.709 443.515C874.691 444.849 874.667 446.183 874.638 447.514L875.137 447.526ZM875.245 439.509C875.248 438.84 875.25 438.17 875.25 437.5H874.75C874.75 438.169 874.748 438.838 874.745 439.507L875.245 439.509ZM875.25 437.5C875.25 436.83 875.248 436.16 875.245 435.49L874.745 435.493C874.748 436.161 874.75 436.831 874.75 437.5H875.25ZM875.209 431.478C875.191 430.142 875.167 428.807 875.137 427.474L874.638 427.485C874.667 428.817 874.691 430.15 874.709 431.484L875.209 431.478ZM875.03 423.479C874.988 422.148 874.94 420.82 874.886 419.492L874.387 419.513C874.44 420.838 874.488 422.166 874.53 423.494L875.03 423.479ZM874.708 415.515C874.641 414.179 874.569 412.844 874.491 411.511L873.992 411.54C874.07 412.872 874.142 414.205 874.208 415.54L874.708 415.515ZM874.239 407.51C874.149 406.178 874.053 404.848 873.951 403.519L873.452 403.558C873.554 404.885 873.65 406.214 873.74 407.544L874.239 407.51ZM873.627 399.539C873.513 398.213 873.393 396.89 873.268 395.568L872.77 395.615C872.895 396.935 873.015 398.258 873.129 399.581L873.627 399.539ZM872.872 391.596C872.733 390.265 872.589 388.936 872.438 387.609L871.941 387.665C872.092 388.991 872.236 390.319 872.375 391.648L872.872 391.596ZM871.968 383.632C871.806 382.308 871.638 380.986 871.463 379.666L870.968 379.731C871.142 381.05 871.31 382.37 871.472 383.693L871.968 383.632ZM870.923 375.711C870.737 374.395 870.545 373.08 870.348 371.768L869.853 371.842C870.051 373.153 870.242 374.466 870.428 375.781L870.923 375.711ZM869.733 367.81C869.522 366.49 869.305 365.172 869.082 363.856L868.589 363.94C868.812 365.254 869.028 366.571 869.239 367.889L869.733 367.81ZM868.396 359.915C868.161 358.603 867.92 357.293 867.674 355.985L867.183 356.078C867.429 357.384 867.669 358.692 867.903 360.003L868.396 359.915ZM866.918 352.068C866.659 350.762 866.395 349.457 866.125 348.155L865.635 348.257C865.905 349.557 866.169 350.86 866.427 352.165L866.918 352.068ZM865.293 344.234C865.01 342.929 864.721 341.627 864.426 340.326L863.939 340.437C864.233 341.736 864.522 343.037 864.805 344.34L865.293 344.234ZM863.525 336.431C863.218 335.135 862.906 333.841 862.588 332.55L862.103 332.669C862.42 333.959 862.732 335.252 863.038 336.546L863.525 336.431ZM861.618 328.682C861.287 327.388 860.95 326.096 860.607 324.806L860.124 324.935C860.466 326.223 860.803 327.513 861.133 328.806L861.618 328.682ZM859.561 320.941C859.207 319.655 858.847 318.371 858.481 317.09L858 317.227C858.366 318.507 858.725 319.789 859.079 321.074L859.561 320.941ZM857.367 313.253C856.989 311.976 856.607 310.702 856.218 309.431L855.74 309.577C856.128 310.847 856.51 312.12 856.887 313.395L857.367 313.253ZM855.033 305.614C854.631 304.34 854.223 303.069 853.81 301.8L853.335 301.955C853.747 303.222 854.155 304.492 854.556 305.764L855.033 305.614ZM852.553 298.001C852.129 296.738 851.699 295.476 851.263 294.218L850.79 294.382C851.226 295.639 851.655 296.898 852.079 298.16L852.553 298.001ZM849.939 290.45C849.492 289.197 849.039 287.946 848.581 286.697L848.112 286.87C848.569 288.117 849.021 289.366 849.468 290.618L849.939 290.45ZM847.184 282.943C846.713 281.695 846.236 280.449 845.754 279.206L845.287 279.387C845.769 280.628 846.246 281.873 846.716 283.12L847.184 282.943ZM844.29 275.485C843.797 274.247 843.298 273.012 842.794 271.78L842.331 271.97C842.835 273.2 843.333 274.434 843.826 275.67L844.29 275.485ZM841.265 268.093C840.748 266.863 840.226 265.636 839.698 264.411L839.239 264.609C839.766 265.832 840.287 267.058 840.804 268.286L841.265 268.093ZM838.097 260.743C837.558 259.523 837.014 258.306 836.464 257.092L836.008 257.298C836.558 258.511 837.101 259.727 837.64 260.945L838.097 260.743ZM834.798 253.459C834.238 252.251 833.672 251.046 833.101 249.844L832.649 250.059C833.22 251.259 833.785 252.463 834.345 253.67L834.798 253.459ZM831.369 246.242C830.785 245.042 830.196 243.845 829.601 242.651L829.154 242.874C829.747 244.066 830.336 245.262 830.919 246.461L831.369 246.242ZM827.802 239.078C827.197 237.891 826.587 236.706 825.971 235.525L825.528 235.756C826.143 236.936 826.752 238.119 827.357 239.305L827.802 239.078ZM824.109 231.99C823.483 230.814 822.852 229.642 822.215 228.473L821.776 228.712C822.412 229.88 823.042 231.051 823.668 232.225L824.109 231.99ZM820.285 224.967C819.637 223.801 818.983 222.639 818.324 221.48L817.889 221.727C818.547 222.885 819.2 224.046 819.848 225.21L820.285 224.967ZM816.332 218.013C815.663 216.861 814.989 215.712 814.31 214.566L813.88 214.821C814.558 215.966 815.232 217.113 815.9 218.264L816.332 218.013ZM812.257 211.14C811.566 209.999 810.871 208.861 810.17 207.727L809.744 207.99C810.444 209.123 811.139 210.259 811.829 211.399L812.257 211.14ZM808.052 204.334C807.341 203.206 806.624 202.082 805.903 200.961L805.483 201.231C806.203 202.351 806.918 203.474 807.629 204.6L808.052 204.334ZM803.725 197.609C802.994 196.496 802.258 195.385 801.517 194.279L801.102 194.557C801.842 195.662 802.577 196.771 803.307 197.884L803.725 197.609ZM799.278 190.967C798.526 189.865 797.769 188.768 797.008 187.673L796.597 187.959C797.358 189.052 798.114 190.148 798.865 191.249L799.278 190.967ZM794.708 184.402C793.936 183.315 793.16 182.232 792.379 181.153L791.974 181.446C792.754 182.524 793.529 183.606 794.3 184.691L794.708 184.402ZM790.021 177.925C789.23 176.853 788.435 175.784 787.634 174.72L787.234 175.02C788.034 176.084 788.829 177.151 789.619 178.222L790.021 177.925ZM785.216 171.533C784.405 170.475 783.59 169.421 782.77 168.37L782.376 168.678C783.195 169.727 784.009 170.78 784.819 171.837L785.216 171.533ZM780.295 165.23C779.466 164.187 778.632 163.148 777.793 162.112L777.405 162.427C778.242 163.461 779.076 164.499 779.904 165.541L780.295 165.23ZM775.263 159.019C774.414 157.99 773.561 156.966 772.703 155.946L772.32 156.268C773.177 157.287 774.03 158.31 774.877 159.337L775.263 159.019ZM770.116 152.897C769.249 151.885 768.377 150.876 767.501 149.872L767.124 150.201C767.999 151.204 768.87 152.211 769.736 153.222L770.116 152.897ZM764.859 146.871C763.974 145.875 763.085 144.883 762.191 143.895L761.82 144.231C762.713 145.217 763.602 146.208 764.486 147.203L764.859 146.871ZM759.495 140.942C758.592 139.962 757.684 138.986 756.772 138.014L756.407 138.356C757.318 139.327 758.225 140.302 759.127 141.281L759.495 140.942ZM754.023 135.111C753.102 134.148 752.177 133.188 751.247 132.233L750.889 132.582C751.818 133.536 752.742 134.494 753.661 135.457L754.023 135.111ZM748.446 129.381C747.508 128.434 746.566 127.492 745.619 126.554L745.267 126.909C746.213 127.846 747.154 128.787 748.091 129.733L748.446 129.381ZM742.767 123.752C741.812 122.823 740.852 121.898 739.889 120.977L739.543 121.339C740.506 122.258 741.464 123.182 742.418 124.111L742.767 123.752ZM736.986 118.228C736.014 117.316 735.038 116.408 734.057 115.505L733.719 115.873C734.698 116.775 735.673 117.682 736.643 118.593L736.986 118.228ZM731.105 112.809C730.117 111.915 729.125 111.026 728.129 110.14L727.797 110.514C728.792 111.398 729.782 112.287 730.769 113.18L731.105 112.809ZM725.128 107.499C724.124 106.623 723.115 105.751 722.103 104.884L721.778 105.264C722.789 106.13 723.796 107.001 724.799 107.876L725.128 107.499ZM719.054 102.297C718.034 101.439 717.01 100.586 715.981 99.737L715.663 100.123C716.69 100.97 717.713 101.823 718.732 102.68L719.054 102.297ZM712.888 97.2068C711.852 96.368 710.813 95.5339 709.77 94.7045L709.459 95.0958C710.501 95.9243 711.539 96.7575 712.573 97.5953L712.888 97.2068ZM706.63 92.23C705.579 91.4099 704.525 90.5945 703.467 89.7838L703.162 90.1807C704.22 90.9905 705.273 91.805 706.322 92.6242L706.63 92.23ZM700.28 87.3659C699.215 86.5654 698.147 85.7697 697.074 84.9787L696.778 85.3811C697.849 86.1712 698.916 86.966 699.98 87.7655L700.28 87.3659ZM693.847 82.6211C692.768 81.84 691.685 81.0637 690.598 80.2922L690.308 80.7C691.394 81.4705 692.476 82.2459 693.554 83.0261L693.847 82.6211ZM687.326 77.9924C686.232 77.2307 685.135 76.4738 684.033 75.7218L683.751 76.1348C684.851 76.8859 685.948 77.6419 687.041 78.4028L687.326 77.9924ZM680.721 73.4824C679.614 72.7416 678.504 72.0057 677.391 71.2747L677.116 71.6927C678.229 72.4228 679.338 73.1579 680.443 73.8979L680.721 73.4824ZM674.039 69.0966C672.918 68.3755 671.794 67.6595 670.666 66.9484L670.4 67.3713C671.526 68.0816 672.649 68.7969 673.768 69.5171L674.039 69.0966ZM667.273 64.8302C666.139 64.1294 665.001 63.4337 663.86 62.743L663.601 63.1708C664.741 63.8606 665.877 64.5556 667.01 65.2555L667.273 64.8302ZM660.433 60.6901C659.288 60.0109 658.139 59.3368 656.987 58.6677L656.736 59.1001C657.887 59.7684 659.034 60.4418 660.179 61.1202L660.433 60.6901ZM653.52 56.6759C652.361 56.0171 651.199 55.3634 650.033 54.7149L649.79 55.1518C650.954 55.7996 652.115 56.4525 653.273 57.1106L653.52 56.6759ZM646.527 52.7849C645.358 52.1484 644.186 51.5171 643.01 50.891L642.775 51.3323C643.949 51.9577 645.12 52.5883 646.288 53.2241L646.527 52.7849ZM639.475 49.0288C638.294 48.4133 637.109 47.803 635.922 47.198L635.695 47.6435C636.881 48.2478 638.064 48.8574 639.244 49.4722L639.475 49.0288ZM632.349 45.3988C631.155 44.8043 629.958 44.2151 628.758 43.6313L628.539 44.0809C629.738 44.6641 630.934 45.2526 632.126 45.8464L632.349 45.3988ZM625.156 41.8993C623.954 41.3281 622.749 40.7622 621.541 40.2017L621.331 40.6552C622.537 41.2151 623.741 41.7804 624.941 42.3509L625.156 41.8993ZM617.908 38.5361C616.694 37.9863 615.477 37.4419 614.257 36.9029L614.055 37.3602C615.274 37.8986 616.489 38.4424 617.702 38.9916L617.908 38.5361ZM610.589 35.302C609.365 34.7744 608.137 34.2523 606.907 33.7355L606.714 34.1965C607.942 34.7127 609.168 35.2342 610.391 35.7612L610.589 35.302ZM603.22 32.2064C601.988 31.7021 600.753 31.2033 599.515 30.7099L599.33 31.1744C600.566 31.6672 601.8 32.1654 603.03 32.6691L603.22 32.2064ZM595.794 29.2464C594.551 28.7641 593.305 28.2873 592.057 27.816L591.88 28.2838C593.127 28.7545 594.372 29.2308 595.613 29.7126L595.794 29.2464ZM588.303 26.4188C587.054 25.9607 585.803 25.5081 584.55 25.0611L584.382 25.532C585.634 25.9785 586.884 26.4306 588.13 26.8882L588.303 26.4188ZM580.782 23.7372C579.524 23.3015 578.263 22.8713 576.999 22.4468L576.84 22.9207C578.102 23.3448 579.361 23.7744 580.618 24.2097L580.782 23.7372ZM573.2 21.19C571.931 20.7767 570.66 20.3691 569.386 19.9671L569.236 20.4439C570.508 20.8454 571.778 21.2526 573.045 21.6654L573.2 21.19ZM565.569 18.7818C564.298 18.3934 563.024 18.0105 561.747 17.6334L561.605 18.1129C562.88 18.4896 564.153 18.872 565.423 19.26L565.569 18.7818ZM557.91 16.5189C556.629 16.1531 555.345 15.793 554.059 15.4386L553.926 15.9207C555.211 16.2747 556.493 16.6343 557.773 16.9997L557.91 16.5189ZM550.194 14.3927C548.904 14.0501 547.612 13.7133 546.318 13.3822L546.194 13.8666C547.487 14.1973 548.777 14.5337 550.065 14.8759L550.194 14.3927ZM542.45 12.4116C541.159 12.0938 539.865 11.7817 538.569 11.4754L538.454 11.962C539.748 12.2679 541.041 12.5797 542.331 12.8971L542.45 12.4116ZM534.674 10.5738C533.373 10.279 532.071 9.99001 530.766 9.70686L530.66 10.1955C531.963 10.4783 533.264 10.767 534.563 11.0614L534.674 10.5738ZM526.845 8.87488C525.542 8.60482 524.238 8.34056 522.932 8.08211L522.835 8.5726C524.14 8.83076 525.442 9.09472 526.743 9.36446L526.845 8.87488ZM519.015 7.3258C517.707 7.0795 516.397 6.83902 515.085 6.60438L514.997 7.09657C516.307 7.33094 517.616 7.57115 518.922 7.81716L519.015 7.3258ZM511.143 5.91803C509.827 5.69511 508.51 5.47807 507.19 5.26692L507.111 5.76064C508.429 5.97155 509.745 6.18834 511.06 6.41101L511.143 5.91803ZM503.232 4.6524C501.92 4.45473 500.605 4.26289 499.289 4.07691L499.219 4.572C500.534 4.75776 501.847 4.94938 503.158 5.14682L503.232 4.6524ZM495.334 3.53656C494.014 3.36232 492.692 3.19396 491.368 3.0315L491.307 3.52778C492.629 3.69005 493.95 3.85822 495.268 4.03226L495.334 3.53656ZM487.391 2.56191C486.063 2.41131 484.734 2.26664 483.403 2.12794L483.351 2.62525C484.681 2.76379 486.009 2.90829 487.334 3.05872L487.391 2.56191ZM479.432 1.73233C478.11 1.60671 476.786 1.48696 475.461 1.37312L475.418 1.87129C476.742 1.985 478.064 2.10461 479.384 2.23009L479.432 1.73233ZM471.48 1.04934C470.151 0.947334 468.821 0.851261 467.489 0.761146L467.456 1.26001C468.786 1.35002 470.115 1.44598 471.442 1.54787L471.48 1.04934ZM463.489 0.508698C462.155 0.430638 460.821 0.358544 459.484 0.292444L459.46 0.791834C460.794 0.857859 462.128 0.929871 463.459 1.00784L463.489 0.508698ZM455.507 0.113636C454.18 0.0599348 452.851 0.0121431 451.521 -0.0297136L451.505 0.470039C452.834 0.511849 454.161 0.559587 455.487 0.613227L455.507 0.113636ZM447.526 -0.137454C446.192 -0.167415 444.858 -0.191415 443.522 -0.20943L443.515 0.290525C444.849 0.308519 446.183 0.332492 447.514 0.36242L447.526 -0.137454ZM439.509 -0.245488C438.84 -0.248495 438.17 -0.25 437.5 -0.25V0.25C438.169 0.25 438.838 0.251503 439.507 0.254507L439.509 -0.245488ZM437.5 -0.25H435.511V0.25H437.5V-0.25ZM431.534 -0.25H427.557V0.25H431.534V-0.25ZM423.58 -0.25H419.602V0.25H423.58V-0.25ZM415.625 -0.25H411.648V0.25H415.625V-0.25ZM407.67 -0.25H403.693V0.25H407.67V-0.25ZM399.716 -0.25H395.739V0.25H399.716V-0.25ZM391.761 -0.25H387.784V0.25H391.761V-0.25ZM383.807 -0.25H379.83V0.25H383.807V-0.25ZM375.852 -0.25H371.875V0.25H375.852V-0.25ZM367.898 -0.25H363.92V0.25H367.898V-0.25ZM359.943 -0.25H355.966V0.25H359.943V-0.25ZM351.989 -0.25H348.011V0.25H351.989V-0.25ZM344.034 -0.25H340.057V0.25H344.034V-0.25ZM336.08 -0.25H332.102V0.25H336.08V-0.25ZM328.125 -0.25H324.148V0.25H328.125V-0.25ZM320.17 -0.25H316.193V0.25H320.17V-0.25ZM312.216 -0.25H308.239V0.25H312.216V-0.25ZM304.261 -0.25H300.284V0.25H304.261V-0.25ZM296.307 -0.25H292.33V0.25H296.307V-0.25ZM288.352 -0.25H284.375V0.25H288.352V-0.25ZM280.398 -0.25H276.42V0.25H280.398V-0.25ZM272.443 -0.25H268.466V0.25H272.443V-0.25ZM264.489 -0.25H260.511V0.25H264.489V-0.25ZM256.534 -0.25H252.557V0.25H256.534V-0.25ZM248.579 -0.25H244.602V0.25H248.579V-0.25ZM240.625 -0.25H236.648V0.25H240.625V-0.25ZM232.67 -0.25H228.693V0.25H232.67V-0.25ZM224.716 -0.25H220.738V0.25H224.716V-0.25ZM216.761 -0.25H212.784V0.25H216.761V-0.25ZM208.807 -0.25H204.829V0.25H208.807V-0.25ZM200.852 -0.25H196.875V0.25H200.852V-0.25ZM192.898 -0.25H188.92V0.25H192.898V-0.25ZM184.943 -0.25H180.966V0.25H184.943V-0.25ZM176.988 -0.25H173.011V0.25H176.988V-0.25ZM169.034 -0.25H165.057V0.25H169.034V-0.25ZM161.079 -0.25H157.102V0.25H161.079V-0.25ZM153.125 -0.25H149.148V0.25H153.125V-0.25ZM145.17 -0.25H141.193V0.25H145.17V-0.25ZM137.216 -0.25H133.239V0.25H137.216V-0.25ZM129.261 -0.25H125.284V0.25H129.261V-0.25ZM121.307 -0.25H117.329V0.25H121.307V-0.25ZM113.352 -0.25H109.375V0.25H113.352V-0.25ZM105.398 -0.25H101.42V0.25H105.398V-0.25ZM97.4431 -0.25H93.4659V0.25H97.4431V-0.25ZM89.4886 -0.25H85.5114V0.25H89.4886V-0.25ZM81.5341 -0.25H77.5568V0.25H81.5341V-0.25ZM73.5796 -0.25H69.6023V0.25H73.5796V-0.25ZM65.625 -0.25H61.6478V0.25H65.625V-0.25ZM57.6705 -0.25H53.6932V0.25H57.6705V-0.25ZM49.716 -0.25H45.7387V0.25H49.716V-0.25ZM41.7615 -0.25H37.7842V0.25H41.7615V-0.25ZM33.8069 -0.25H29.8296V0.25H33.8069V-0.25ZM25.8524 -0.25H21.8751V0.25H25.8524V-0.25ZM17.8979 -0.25H13.9206V0.25H17.8979V-0.25ZM9.94333 -0.25H5.96606V0.25H9.94333V-0.25ZM1.98879 -0.25H0V0.25H1.98879V-0.25ZM0 0V-0.5H-0.5V0H0ZM-0.5 0V1.98864H0.5V0H-0.5ZM-0.5 5.96591V9.94318H0.5V5.96591H-0.5ZM-0.5 13.9205V17.8977H0.5V13.9205H-0.5ZM-0.5 21.875V25.8523H0.5V21.875H-0.5ZM-0.5 29.8295V33.8068H0.5V29.8295H-0.5ZM-0.5 37.7841V41.7614H0.5V37.7841H-0.5ZM-0.5 45.7386V49.7159H0.5V45.7386H-0.5ZM-0.5 53.6932V57.6704H0.5V53.6932H-0.5ZM-0.5 61.6477V65.625H0.5V61.6477H-0.5ZM-0.5 69.6023V73.5795H0.5V69.6023H-0.5ZM-0.5 77.5568V81.5341H0.5V77.5568H-0.5ZM-0.5 85.5114V89.4886H0.5V85.5114H-0.5ZM-0.5 93.4659V97.4432H0.5V93.4659H-0.5ZM-0.5 101.42V105.398H0.5V101.42H-0.5ZM-0.5 109.375V113.352H0.5V109.375H-0.5ZM-0.5 117.33V121.307H0.5V117.33H-0.5ZM-0.5 125.284V129.261H0.5V125.284H-0.5ZM-0.5 133.239V137.216H0.5V133.239H-0.5ZM-0.5 141.193V145.17H0.5V141.193H-0.5ZM-0.5 149.148V153.125H0.5V149.148H-0.5ZM-0.5 157.102V161.08H0.5V157.102H-0.5ZM-0.5 165.057V169.034H0.5V165.057H-0.5ZM-0.5 173.011V176.989H0.5V173.011H-0.5ZM-0.5 180.966V184.943H0.5V180.966H-0.5ZM-0.5 188.921V192.898H0.5V188.921H-0.5ZM-0.5 196.875V200.852H0.5V196.875H-0.5ZM-0.5 204.83V208.807H0.5V204.83H-0.5ZM-0.5 212.784V216.762H0.5V212.784H-0.5ZM-0.5 220.739V224.716H0.5V220.739H-0.5ZM-0.5 228.693V232.671H0.5V228.693H-0.5ZM-0.5 236.648V240.625H0.5V236.648H-0.5ZM-0.5 244.602V248.58H0.5V244.602H-0.5ZM-0.5 252.557V256.534H0.5V252.557H-0.5ZM-0.5 260.512V264.489H0.5V260.512H-0.5ZM-0.5 268.466V272.443H0.5V268.466H-0.5ZM-0.5 276.421V280.398H0.5V276.421H-0.5ZM-0.5 284.375V288.352H0.5V284.375H-0.5ZM-0.5 292.33V296.307H0.5V292.33H-0.5ZM-0.5 300.284V304.261H0.5V300.284H-0.5ZM-0.5 308.239V312.216H0.5V308.239H-0.5ZM-0.5 316.193V320.171H0.5V316.193H-0.5ZM-0.5 324.148V328.125H0.5V324.148H-0.5ZM-0.5 332.102V336.08H0.5V332.102H-0.5ZM-0.5 340.057V344.034H0.5V340.057H-0.5ZM-0.5 348.011V351.989H0.5V348.011H-0.5ZM-0.5 355.966V359.943H0.5V355.966H-0.5ZM-0.5 363.92V367.898H0.5V363.92H-0.5ZM-0.5 371.875V375.852H0.5V371.875H-0.5ZM-0.5 379.829V383.807H0.5V379.829H-0.5ZM-0.5 387.784V391.761H0.5V387.784H-0.5ZM-0.5 395.739V399.716H0.5V395.739H-0.5ZM-0.5 403.693V407.67H0.5V403.693H-0.5ZM-0.5 411.648V415.625H0.5V411.648H-0.5ZM-0.5 419.602V423.579H0.5V419.602H-0.5ZM-0.5 427.557V431.534H0.5V427.557H-0.5ZM-0.5 435.511V437.5H0.5V435.511H-0.5ZM-0.5 437.5C-0.5 438.171 -0.498493 438.841 -0.495482 439.511L0.504508 439.506C0.501504 438.838 0.5 438.169 0.5 437.5H-0.5ZM-0.459398 443.526C-0.441372 444.862 -0.417356 446.198 -0.387376 447.532L0.612371 447.509C0.582459 446.178 0.558497 444.846 0.540511 443.512L-0.459398 443.526ZM-0.279571 451.529C-0.237689 452.86 -0.189868 454.19 -0.136135 455.518L0.863047 455.477C0.809435 454.152 0.761722 452.826 0.719934 451.498L-0.279571 451.529ZM0.0427768 459.497C0.108916 460.834 0.181052 462.17 0.259158 463.504L1.25745 463.445C1.17952 462.114 1.10755 460.782 1.04156 459.448L0.0427768 459.497ZM0.51175 467.507C0.601918 468.839 0.698047 470.17 0.80011 471.5L1.79718 471.423C1.69534 470.097 1.59943 468.769 1.50947 467.439L0.51175 467.507ZM1.12408 475.483C1.23798 476.809 1.3578 478.133 1.48349 479.456L2.47901 479.361C2.3536 478.042 2.23406 476.72 2.12041 475.397L1.12408 475.483ZM1.87933 483.429C2.01812 484.761 2.16286 486.091 2.31355 487.419L3.30718 487.307C3.15683 485.982 3.01241 484.655 2.87395 483.326L1.87933 483.429ZM2.78341 491.399C2.94596 492.723 3.11441 494.046 3.28876 495.367L4.28016 495.236C4.10621 493.918 3.93814 492.598 3.77597 491.277L2.78341 491.399ZM3.82942 499.324C4.0155 500.641 4.20745 501.956 4.40523 503.27L5.39408 503.121C5.19675 501.81 5.00525 500.498 4.81958 499.184L3.82942 499.324ZM5.02011 507.229C5.23137 508.55 5.44855 509.869 5.67159 511.185L6.65755 511.018C6.43501 509.705 6.21833 508.389 6.00755 507.072L5.02011 507.229ZM6.35833 515.129C6.5931 516.442 6.83372 517.752 7.08016 519.061L8.06288 518.876C7.81701 517.57 7.57694 516.263 7.34271 514.953L6.35833 515.129ZM7.8369 522.98C8.0955 524.288 8.35992 525.593 8.63012 526.896L9.60929 526.693C9.33971 525.393 9.0759 524.091 8.81789 522.786L7.8369 522.98ZM9.46258 530.819C9.7459 532.125 10.035 533.428 10.33 534.729L11.3052 534.508C11.011 533.21 10.7225 531.909 10.4398 530.607L9.46258 530.819ZM11.2321 538.626C11.5386 539.923 11.8509 541.218 12.1689 542.51L13.1399 542.271C12.8226 540.982 12.5111 539.69 12.2053 538.396L11.2321 538.626ZM13.14 546.38C13.4713 547.675 13.8083 548.968 14.1511 550.258L15.1176 550.001C14.7756 548.714 14.4393 547.424 14.1088 546.132L13.14 546.38ZM15.1976 554.126C15.5522 555.412 15.9125 556.697 16.2786 557.979L17.2401 557.704C16.875 556.425 16.5155 555.144 16.1617 553.86L15.1976 554.126ZM17.3936 561.818C17.771 563.095 18.1541 564.37 18.5427 565.642L19.4991 565.35C19.1113 564.081 18.7292 562.809 18.3527 561.535L17.3936 561.818ZM19.7287 569.462C20.1309 570.736 20.5388 572.008 20.9523 573.278L21.9031 572.968C21.4906 571.701 21.0836 570.432 20.6823 569.161L19.7287 569.462ZM22.2098 577.078C22.6346 578.343 23.065 579.605 23.5009 580.864L24.4459 580.537C24.0109 579.28 23.5815 578.021 23.1577 576.76L22.2098 577.078ZM24.8256 584.634C25.2729 585.888 25.7257 587.14 26.1841 588.389L27.1229 588.044C26.6655 586.798 26.2138 585.549 25.7675 584.298L24.8256 584.634ZM27.582 592.145C28.0536 593.394 28.5307 594.641 29.0133 595.885L29.9456 595.523C29.4641 594.282 28.9881 593.038 28.5176 591.792L27.582 592.145ZM30.4777 599.608C30.9713 600.846 31.4704 602.082 31.975 603.314L32.9004 602.936C32.397 601.706 31.8991 600.473 31.4066 599.238L30.4777 599.608ZM33.505 607.004C34.022 608.235 34.5445 609.463 35.0724 610.688L35.9907 610.292C35.4641 609.07 34.9428 607.845 34.427 606.617L33.505 607.004ZM36.6741 614.358C37.2135 615.579 37.7582 616.796 38.3084 618.011L39.2193 617.598C38.6704 616.387 38.1269 615.172 37.5888 613.954L36.6741 614.358ZM39.9749 621.646C40.5357 622.855 41.1019 624.061 41.6735 625.263L42.5767 624.834C42.0064 623.634 41.4415 622.431 40.882 621.225L39.9749 621.646ZM43.4065 628.867C43.9906 630.068 44.5802 631.266 45.175 632.461L46.0701 632.015C45.4767 630.823 44.8885 629.628 44.3057 628.43L43.4065 628.867ZM46.9752 636.035C47.5806 637.224 48.1912 638.409 48.8071 639.591L49.6939 639.129C49.0795 637.95 48.4702 636.767 47.8663 635.581L46.9752 636.035ZM50.6703 643.128C51.2968 644.304 51.9285 645.477 52.5654 646.646L53.4436 646.168C52.8082 645.001 52.178 643.831 51.5529 642.658L50.6703 643.128ZM54.4965 650.155C55.1453 651.321 55.7994 652.484 56.4586 653.643L57.3279 653.149C56.6702 651.992 56.0177 650.832 55.3703 649.669L54.4965 650.155ZM58.4515 657.112C59.121 658.265 59.7955 659.415 60.4751 660.561L61.3353 660.051C60.6572 658.907 59.9842 657.76 59.3163 656.61L58.4515 657.112ZM62.5292 663.99C63.2203 665.131 63.9164 666.27 64.6175 667.404L65.4682 666.879C64.7687 665.747 64.0742 664.611 63.3847 663.472L62.5292 663.99ZM66.737 670.8C67.4484 671.928 68.1649 673.053 68.8864 674.174L69.7274 673.633C69.0076 672.514 68.2927 671.392 67.5828 670.266L66.737 670.8ZM71.0658 677.528C71.7972 678.642 72.5335 679.753 73.2748 680.86L74.1057 680.304C73.3662 679.199 72.6315 678.091 71.9018 676.979L71.0658 677.528ZM75.5154 684.174C76.2679 685.276 77.0252 686.375 77.7873 687.469L78.608 686.898C77.8476 685.806 77.092 684.71 76.3413 683.61L75.5154 684.174ZM80.0885 690.743C80.8604 691.83 81.6371 692.914 82.4186 693.994L83.2288 693.408C82.449 692.33 81.674 691.249 80.9039 690.164L80.0885 690.743ZM84.7776 697.223C85.569 698.296 86.3652 699.365 87.1661 700.431L87.9654 699.83C87.1664 698.767 86.372 697.7 85.5824 696.629L84.7776 697.223ZM89.5854 703.619C90.3966 704.678 91.2125 705.733 92.0331 706.784L92.8213 706.169C92.0026 705.12 91.1886 704.067 90.3793 703.011L89.5854 703.619ZM94.5089 709.926C95.3388 710.97 96.1734 712.009 97.0127 713.045L97.7896 712.416C96.9523 711.382 96.1196 710.345 95.2915 709.304L94.5089 709.926ZM99.5443 716.141C100.393 717.169 101.247 718.194 102.106 719.215L102.871 718.572C102.015 717.553 101.163 716.53 100.315 715.504L99.5443 716.141ZM104.694 722.266C105.562 723.279 106.434 724.287 107.311 725.292L108.064 724.635C107.19 723.632 106.319 722.626 105.454 721.615L104.694 722.266ZM109.954 728.295C110.839 729.291 111.729 730.284 112.624 731.273L113.365 730.602C112.473 729.615 111.585 728.625 110.701 727.631L109.954 728.295ZM115.321 734.227C116.225 735.208 117.133 736.184 118.046 737.157L118.775 736.472C117.864 735.502 116.958 734.528 116.057 733.549L115.321 734.227ZM120.796 740.062C121.718 741.026 122.643 741.985 123.573 742.941L124.29 742.244C123.362 741.29 122.439 740.333 121.519 739.371L120.796 740.062ZM126.376 745.795C127.315 746.742 128.258 747.685 129.205 748.624L129.909 747.914C128.964 746.977 128.023 746.036 127.087 745.091L126.376 745.795ZM132.059 751.427C133.015 752.357 133.974 753.282 134.939 754.204L135.629 753.481C134.668 752.561 133.71 751.638 132.756 750.71L132.059 751.427ZM137.843 756.954C138.816 757.867 139.792 758.775 140.773 759.679L141.451 758.943C140.472 758.042 139.498 757.136 138.528 756.225L137.843 756.954ZM143.727 762.376C144.716 763.271 145.709 764.161 146.705 765.046L147.37 764.299C146.375 763.415 145.385 762.527 144.398 761.635L143.727 762.376ZM149.708 767.69C150.713 768.566 151.721 769.438 152.734 770.306L153.385 769.546C152.374 768.681 151.368 767.811 150.365 766.936L149.708 767.69ZM155.785 772.894C156.806 773.753 157.831 774.607 158.86 775.456L159.496 774.685C158.47 773.837 157.447 772.986 156.429 772.129L155.785 772.894ZM161.955 777.987C162.991 778.827 164.03 779.661 165.074 780.491L165.696 779.709C164.655 778.88 163.618 778.048 162.585 777.21L161.955 777.987ZM168.216 782.967C169.267 783.788 170.323 784.604 171.381 785.415L171.99 784.621C170.933 783.812 169.88 782.997 168.832 782.179L168.216 782.967ZM174.57 787.834C175.635 788.635 176.704 789.431 177.777 790.222L178.371 789.418C177.3 788.628 176.233 787.834 175.17 787.035L174.57 787.834ZM181.006 792.581C182.086 793.363 183.17 794.14 184.257 794.912L184.836 794.096C183.751 793.326 182.67 792.551 181.592 791.771L181.006 792.581ZM187.531 797.213C188.625 797.975 189.724 798.732 190.826 799.485L191.39 798.659C190.29 797.908 189.194 797.153 188.102 796.392L187.531 797.213ZM194.14 801.725C195.247 802.467 196.358 803.203 197.472 803.934L198.021 803.098C196.909 802.369 195.801 801.634 194.696 800.894L194.14 801.725ZM200.826 806.114C201.947 806.835 203.072 807.552 204.2 808.263L204.734 807.417C203.608 806.707 202.486 805.992 201.367 805.273L200.826 806.114ZM207.596 810.383C208.731 811.084 209.869 811.78 211.01 812.471L211.528 811.615C210.389 810.926 209.254 810.231 208.121 809.532L207.596 810.383ZM214.439 814.525C215.585 815.205 216.735 815.879 217.888 816.549L218.39 815.684C217.24 815.016 216.093 814.343 214.949 813.665L214.439 814.525ZM221.357 818.541C222.516 819.201 223.679 819.855 224.845 820.504L225.331 819.63C224.168 818.982 223.008 818.33 221.851 817.672L221.357 818.541ZM228.354 822.435C229.523 823.071 230.696 823.703 231.872 824.33L232.342 823.447C231.169 822.822 229.999 822.192 228.832 821.556L228.354 822.435ZM235.409 826.193C236.591 826.809 237.776 827.419 238.965 828.025L239.419 827.134C238.233 826.53 237.05 825.921 235.871 825.306L235.409 826.193ZM242.539 829.825C243.734 830.42 244.932 831.009 246.133 831.594L246.57 830.694C245.372 830.111 244.177 829.523 242.985 828.93L242.539 829.825ZM249.737 833.326C250.939 833.898 252.145 834.464 253.354 835.025L253.775 834.118C252.569 833.558 251.366 832.994 250.166 832.423L249.737 833.326ZM256.989 836.692C258.204 837.242 259.421 837.786 260.642 838.326L261.046 837.411C259.828 836.873 258.613 836.33 257.401 835.781L256.989 836.692ZM264.312 839.928C265.537 840.455 266.765 840.978 267.996 841.495L268.383 840.573C267.155 840.057 265.93 839.536 264.708 839.009L264.312 839.928ZM271.686 843.025C272.918 843.53 274.154 844.029 275.392 844.522L275.762 843.593C274.527 843.101 273.294 842.603 272.064 842.099L271.686 843.025ZM279.115 845.987C280.359 846.469 281.606 846.946 282.855 847.418L283.208 846.482C281.962 846.012 280.718 845.536 279.477 845.054L279.115 845.987ZM286.611 848.816C287.86 849.274 289.112 849.727 290.366 850.174L290.702 849.232C289.451 848.786 288.202 848.334 286.956 847.877L286.611 848.816ZM294.136 851.499C295.395 851.935 296.657 852.365 297.922 852.79L298.24 851.842C296.979 851.418 295.72 850.989 294.463 850.554L294.136 851.499ZM301.722 854.048C302.992 854.461 304.264 854.869 305.538 855.271L305.839 854.318C304.568 853.916 303.299 853.509 302.032 853.097L301.722 854.048ZM309.358 856.457C310.63 856.846 311.905 857.229 313.182 857.606L313.465 856.647C312.191 856.271 310.919 855.889 309.65 855.501L309.358 856.457ZM317.021 858.721C318.303 859.087 319.588 859.448 320.874 859.802L321.14 858.838C319.856 858.485 318.575 858.125 317.296 857.76L317.021 858.721ZM324.742 860.849C326.032 861.192 327.325 861.529 328.62 861.86L328.868 860.891C327.576 860.561 326.286 860.224 324.999 859.882L324.742 860.849ZM332.49 862.831C333.782 863.149 335.077 863.461 336.374 863.768L336.604 862.795C335.31 862.489 334.018 862.177 332.729 861.86L332.49 862.831ZM340.271 864.67C341.572 864.965 342.876 865.254 344.181 865.537L344.393 864.56C343.091 864.278 341.79 863.989 340.492 863.695L340.271 864.67ZM348.105 866.37C349.408 866.64 350.713 866.905 352.02 867.163L352.214 866.182C350.91 865.924 349.608 865.66 348.308 865.391L348.105 866.37ZM355.939 867.92C357.248 868.166 358.558 868.407 359.871 868.642L360.047 867.657C358.737 867.423 357.43 867.183 356.124 866.937L355.939 867.92ZM363.815 869.328C365.132 869.552 366.45 869.769 367.771 869.98L367.929 868.992C366.611 868.782 365.296 868.565 363.982 868.343L363.815 869.328ZM371.731 870.595C373.044 870.793 374.359 870.985 375.676 871.171L375.816 870.18C374.502 869.995 373.19 869.803 371.879 869.606L371.731 870.595ZM379.634 871.711C380.954 871.886 382.277 872.054 383.602 872.217L383.724 871.224C382.402 871.062 381.082 870.894 379.764 870.72L379.634 871.711ZM387.581 872.687C388.909 872.837 390.239 872.982 391.571 873.121L391.675 872.126C390.346 871.988 389.019 871.843 387.694 871.693L387.581 872.687ZM395.545 873.517C396.867 873.642 398.192 873.762 399.518 873.876L399.603 872.88C398.28 872.766 396.959 872.646 395.639 872.521L395.545 873.517ZM403.501 874.2C404.83 874.302 406.161 874.398 407.494 874.488L407.561 873.491C406.232 873.401 404.904 873.305 403.577 873.203L403.501 874.2ZM411.497 874.741C412.831 874.819 414.166 874.891 415.503 874.957L415.553 873.958C414.219 873.892 412.886 873.82 411.555 873.743L411.497 874.741ZM419.483 875.136C420.811 875.19 422.14 875.238 423.471 875.28L423.503 874.28C422.175 874.238 420.848 874.191 419.523 874.137L419.483 875.136ZM427.469 875.387C428.803 875.417 430.138 875.441 431.475 875.459L431.489 874.459C430.155 874.442 428.822 874.418 427.491 874.388L427.469 875.387ZM435.49 875.495C436.16 875.498 436.83 875.5 437.5 875.5V874.5C436.831 874.5 436.163 874.498 435.495 874.495L435.49 875.495ZM437.5 875.5C438.171 875.5 438.841 875.498 439.511 875.495L439.506 874.495C438.838 874.498 438.169 874.5 437.5 874.5V875.5ZM443.526 875.459C444.862 875.441 446.198 875.417 447.532 875.387L447.509 874.388C446.178 874.418 444.846 874.442 443.512 874.459L443.526 875.459ZM451.529 875.28C452.86 875.238 454.19 875.19 455.518 875.136L455.477 874.137C454.152 874.191 452.826 874.238 451.498 874.28L451.529 875.28ZM459.497 874.957C460.834 874.891 462.17 874.819 463.504 874.741L463.445 873.743C462.114 873.82 460.782 873.892 459.448 873.958L459.497 874.957ZM467.507 874.488C468.839 874.398 470.17 874.302 471.5 874.2L471.423 873.203C470.097 873.305 468.769 873.401 467.439 873.491L467.507 874.488ZM475.483 873.876C476.809 873.762 478.133 873.642 479.456 873.516L479.361 872.521C478.042 872.646 476.72 872.766 475.397 872.88L475.483 873.876ZM483.429 873.121C484.761 872.982 486.091 872.837 487.419 872.686L487.307 871.693C485.982 871.843 484.655 871.988 483.326 872.126L483.429 873.121ZM491.399 872.217C492.723 872.054 494.046 871.886 495.367 871.711L495.236 870.72C493.918 870.894 492.598 871.062 491.277 871.224L491.399 872.217ZM499.324 871.171C500.641 870.984 501.956 870.793 503.27 870.595L503.121 869.606C501.81 869.803 500.498 869.995 499.184 870.18L499.324 871.171ZM507.229 869.98C508.55 869.769 509.869 869.551 511.185 869.328L511.018 868.342C509.705 868.565 508.389 868.782 507.072 868.992L507.229 869.98ZM515.129 868.642C516.442 868.407 517.752 868.166 519.061 867.92L518.876 866.937C517.57 867.183 516.263 867.423 514.953 867.657L515.129 868.642ZM522.98 867.163C524.288 866.904 525.593 866.64 526.896 866.37L526.693 865.391C525.393 865.66 524.091 865.924 522.786 866.182L522.98 867.163ZM530.819 865.537C532.125 865.254 533.428 864.965 534.729 864.67L534.508 863.695C533.21 863.989 531.909 864.277 530.607 864.56L530.819 865.537ZM538.626 863.768C539.923 863.461 541.218 863.149 542.51 862.831L542.271 861.86C540.982 862.177 539.69 862.489 538.396 862.795L538.626 863.768ZM546.38 861.86C547.675 861.529 548.968 861.192 550.258 860.849L550.001 859.882C548.714 860.224 547.424 860.561 546.132 860.891L546.38 861.86ZM554.126 859.802C555.412 859.448 556.697 859.087 557.979 858.721L557.704 857.76C556.425 858.125 555.144 858.484 553.86 858.838L554.126 859.802ZM561.818 857.606C563.095 857.229 564.37 856.846 565.642 856.457L565.35 855.501C564.081 855.889 562.809 856.271 561.535 856.647L561.818 857.606ZM569.462 855.271C570.736 854.869 572.008 854.461 573.278 854.048L572.968 853.097C571.701 853.509 570.432 853.916 569.161 854.318L569.462 855.271ZM577.078 852.79C578.343 852.365 579.605 851.935 580.864 851.499L580.537 850.554C579.28 850.989 578.021 851.418 576.76 851.842L577.078 852.79ZM584.634 850.174C585.888 849.727 587.14 849.274 588.389 848.816L588.044 847.877C586.798 848.334 585.549 848.786 584.298 849.232L584.634 850.174ZM592.145 847.418C593.394 846.946 594.641 846.469 595.885 845.987L595.523 845.054C594.282 845.536 593.038 846.012 591.792 846.482L592.145 847.418ZM599.608 844.522C600.846 844.029 602.082 843.53 603.314 843.025L602.936 842.1C601.706 842.603 600.473 843.101 599.238 843.593L599.608 844.522ZM607.004 841.495C608.235 840.978 609.463 840.456 610.688 839.928L610.292 839.009C609.07 839.536 607.845 840.057 606.617 840.573L607.004 841.495ZM614.358 838.326C615.579 837.786 616.796 837.242 618.011 836.692L617.598 835.781C616.387 836.33 615.172 836.873 613.954 837.411L614.358 838.326ZM621.646 835.025C622.855 834.464 624.061 833.898 625.263 833.327L624.834 832.423C623.634 832.994 622.431 833.558 621.225 834.118L621.646 835.025ZM628.867 831.594C630.068 831.009 631.266 830.42 632.461 829.825L632.015 828.93C630.823 829.523 629.628 830.111 628.43 830.694L628.867 831.594ZM636.035 828.025C637.224 827.419 638.409 826.809 639.591 826.193L639.129 825.306C637.95 825.921 636.767 826.53 635.581 827.134L636.035 828.025ZM643.128 824.33C644.304 823.703 645.477 823.071 646.646 822.435L646.168 821.556C645.001 822.192 643.831 822.822 642.658 823.447L643.128 824.33ZM650.155 820.504C651.321 819.855 652.484 819.201 653.643 818.541L653.149 817.672C651.992 818.33 650.832 818.982 649.669 819.63L650.155 820.504ZM657.112 816.548C658.265 815.879 659.415 815.204 660.561 814.525L660.051 813.665C658.907 814.343 657.76 815.016 656.61 815.684L657.112 816.548ZM663.99 812.471C665.131 811.78 666.27 811.084 667.404 810.383L666.879 809.532C665.747 810.231 664.611 810.926 663.472 811.615L663.99 812.471ZM670.8 808.263C671.928 807.552 673.053 806.835 674.174 806.114L673.633 805.273C672.514 805.992 671.392 806.707 670.266 807.417L670.8 808.263ZM677.528 803.934C678.642 803.203 679.753 802.466 680.86 801.725L680.304 800.894C679.199 801.634 678.091 802.369 676.979 803.098L677.528 803.934ZM684.174 799.485C685.276 798.732 686.375 797.975 687.469 797.213L686.898 796.392C685.806 797.152 684.71 797.908 683.61 798.659L684.174 799.485ZM690.743 794.911C691.83 794.14 692.914 793.363 693.994 792.581L693.408 791.771C692.33 792.551 691.249 793.326 690.164 794.096L690.743 794.911ZM697.223 790.222C698.296 789.431 699.365 788.635 700.431 787.834L699.83 787.035C698.767 787.834 697.7 788.628 696.629 789.418L697.223 790.222ZM703.619 785.415C704.678 784.603 705.733 783.788 706.784 782.967L706.169 782.179C705.12 782.997 704.067 783.811 703.011 784.621L703.619 785.415ZM709.926 780.491C710.97 779.661 712.009 778.827 713.045 777.987L712.416 777.21C711.382 778.048 710.345 778.88 709.304 779.708L709.926 780.491ZM716.141 775.456C717.169 774.607 718.194 773.753 719.215 772.894L718.572 772.129C717.553 772.985 716.53 773.837 715.504 774.685L716.141 775.456ZM722.266 770.306C723.279 769.438 724.287 768.566 725.292 767.689L724.635 766.936C723.632 767.81 722.626 768.681 721.615 769.546L722.266 770.306ZM728.295 765.046C729.291 764.161 730.284 763.271 731.273 762.376L730.602 761.635C729.615 762.527 728.625 763.415 727.631 764.299L728.295 765.046ZM734.227 759.679C735.208 758.775 736.184 757.867 737.157 756.954L736.472 756.225C735.502 757.136 734.528 758.042 733.549 758.943L734.227 759.679ZM740.062 754.204C741.026 753.282 741.985 752.357 742.941 751.427L742.244 750.71C741.29 751.638 740.333 752.561 739.371 753.481L740.062 754.204ZM745.795 748.624C746.742 747.685 747.685 746.742 748.624 745.795L747.914 745.091C746.977 746.036 746.036 746.977 745.091 747.914L745.795 748.624ZM751.427 742.941C752.357 741.985 753.282 741.026 754.204 740.061L753.481 739.371C752.561 740.332 751.638 741.29 750.71 742.244L751.427 742.941ZM756.954 737.157C757.867 736.184 758.775 735.208 759.679 734.227L758.943 733.549C758.042 734.528 757.136 735.502 756.225 736.472L756.954 737.157ZM762.376 731.273C763.271 730.284 764.161 729.291 765.046 728.295L764.299 727.63C763.415 728.625 762.527 729.615 761.635 730.602L762.376 731.273ZM767.69 725.292C768.566 724.287 769.438 723.279 770.306 722.266L769.546 721.615C768.681 722.626 767.811 723.632 766.936 724.635L767.69 725.292ZM772.894 719.215C773.753 718.194 774.607 717.169 775.456 716.14L774.685 715.504C773.837 716.53 772.986 717.553 772.129 718.571L772.894 719.215ZM777.987 713.045C778.827 712.009 779.661 710.97 780.491 709.926L779.709 709.304C778.88 710.345 778.048 711.382 777.21 712.415L777.987 713.045ZM782.967 706.784C783.788 705.733 784.604 704.677 785.415 703.619L784.621 703.01C783.812 704.067 782.997 705.12 782.179 706.168L782.967 706.784ZM787.834 700.43C788.635 699.365 789.431 698.296 790.222 697.223L789.418 696.629C788.628 697.7 787.834 698.767 787.035 699.83L787.834 700.43ZM792.581 693.994C793.363 692.914 794.14 691.83 794.912 690.743L794.096 690.164C793.326 691.249 792.551 692.33 791.771 693.408L792.581 693.994ZM797.213 687.469C797.975 686.375 798.732 685.276 799.485 684.174L798.659 683.61C797.908 684.71 797.153 685.806 796.392 686.898L797.213 687.469ZM801.725 680.86C802.467 679.753 803.203 678.642 803.934 677.528L803.098 676.979C802.369 678.091 801.634 679.199 800.894 680.304L801.725 680.86ZM806.114 674.174C806.835 673.053 807.552 671.928 808.263 670.8L807.417 670.266C806.707 671.392 805.992 672.514 805.273 673.633L806.114 674.174ZM810.383 667.404C811.084 666.269 811.78 665.131 812.471 663.99L811.615 663.472C810.926 664.611 810.231 665.746 809.532 666.879L810.383 667.404ZM814.525 660.561C815.205 659.415 815.879 658.265 816.549 657.112L815.684 656.61C815.016 657.76 814.343 658.907 813.665 660.051L814.525 660.561ZM818.541 653.643C819.201 652.484 819.855 651.321 820.504 650.155L819.63 649.669C818.982 650.832 818.33 651.992 817.672 653.149L818.541 653.643ZM822.435 646.646C823.071 645.477 823.703 644.304 824.33 643.128L823.447 642.658C822.822 643.831 822.192 645.001 821.556 646.168L822.435 646.646ZM826.193 639.591C826.809 638.409 827.419 637.224 828.025 636.035L827.134 635.581C826.53 636.767 825.921 637.95 825.306 639.129L826.193 639.591ZM829.825 632.461C830.42 631.266 831.009 630.068 831.594 628.867L830.694 628.43C830.111 629.628 829.523 630.823 828.93 632.015L829.825 632.461ZM833.326 625.263C833.898 624.061 834.464 622.855 835.025 621.646L834.118 621.225C833.558 622.431 832.994 623.634 832.423 624.834L833.326 625.263ZM836.692 618.011C837.242 616.796 837.786 615.579 838.326 614.358L837.411 613.954C836.873 615.172 836.33 616.387 835.781 617.599L836.692 618.011ZM839.928 610.688C840.455 609.463 840.978 608.235 841.495 607.004L840.573 606.617C840.057 607.845 839.536 609.07 839.009 610.292L839.928 610.688ZM843.025 603.314C843.53 602.082 844.029 600.846 844.522 599.608L843.593 599.238C843.101 600.473 842.603 601.706 842.099 602.936L843.025 603.314ZM845.987 595.885C846.469 594.641 846.946 593.394 847.418 592.145L846.482 591.792C846.012 593.038 845.536 594.282 845.054 595.523L845.987 595.885ZM848.816 588.389C849.274 587.14 849.727 585.888 850.174 584.634L849.232 584.298C848.786 585.549 848.334 586.798 847.877 588.044L848.816 588.389ZM851.499 580.864C851.935 579.605 852.365 578.343 852.79 577.078L851.842 576.76C851.418 578.021 850.989 579.28 850.554 580.537L851.499 580.864ZM854.048 573.278C854.461 572.008 854.869 570.736 855.271 569.462L854.318 569.161C853.916 570.432 853.509 571.701 853.097 572.968L854.048 573.278ZM856.457 565.642C856.846 564.37 857.229 563.095 857.606 561.818L856.647 561.535C856.271 562.809 855.889 564.081 855.501 565.35L856.457 565.642ZM858.721 557.979C859.087 556.697 859.448 555.412 859.802 554.126L858.838 553.86C858.485 555.144 858.125 556.425 857.76 557.704L858.721 557.979ZM860.849 550.258C861.192 548.968 861.529 547.675 861.86 546.38L860.891 546.132C860.561 547.424 860.224 548.714 859.882 550.001L860.849 550.258ZM862.831 542.51C863.149 541.218 863.461 539.923 863.768 538.626L862.795 538.396C862.489 539.69 862.177 540.982 861.86 542.271L862.831 542.51ZM864.67 534.729C864.965 533.428 865.254 532.124 865.537 530.819L864.56 530.607C864.278 531.909 863.989 533.21 863.695 534.508L864.67 534.729ZM866.37 526.895C866.64 525.592 866.905 524.287 867.163 522.98L866.182 522.786C865.924 524.09 865.66 525.392 865.391 526.692L866.37 526.895ZM867.92 519.061C868.166 517.752 868.407 516.442 868.642 515.129L867.657 514.953C867.423 516.263 867.183 517.57 866.937 518.876L867.92 519.061ZM869.328 511.185C869.552 509.868 869.769 508.55 869.98 507.229L868.992 507.071C868.782 508.389 868.565 509.704 868.343 511.018L869.328 511.185ZM870.595 503.269C870.793 501.956 870.985 500.641 871.171 499.324L870.18 499.184C869.995 500.498 869.803 501.81 869.606 503.121L870.595 503.269ZM871.711 495.366C871.886 494.046 872.054 492.723 872.217 491.398L871.224 491.276C871.062 492.598 870.894 493.918 870.72 495.236L871.711 495.366ZM872.687 487.419C872.837 486.091 872.982 484.761 873.121 483.429L872.126 483.325C871.988 484.654 871.843 485.981 871.693 487.306L872.687 487.419ZM873.517 479.455C873.642 478.133 873.762 476.808 873.876 475.482L872.88 475.397C872.766 476.72 872.646 478.041 872.521 479.361L873.517 479.455ZM874.2 471.499C874.302 470.17 874.398 468.839 874.488 467.506L873.491 467.439C873.401 468.768 873.305 470.096 873.203 471.423L874.2 471.499ZM874.741 463.503C874.819 462.169 874.891 460.834 874.957 459.497L873.958 459.447C873.892 460.781 873.82 462.114 873.743 463.445L874.741 463.503ZM875.136 455.517C875.19 454.189 875.238 452.86 875.28 451.529L874.28 451.497C874.238 452.825 874.191 454.152 874.137 455.477L875.136 455.517ZM875.387 447.531C875.417 446.197 875.441 444.862 875.459 443.525L874.459 443.511C874.442 444.845 874.418 446.178 874.388 447.509L875.387 447.531ZM875.495 439.51C875.498 438.84 875.5 438.17 875.5 437.5H874.5C874.5 438.169 874.498 438.837 874.495 439.505L875.495 439.51ZM875.5 437.5C875.5 436.829 875.498 436.159 875.495 435.489L874.495 435.494C874.498 436.162 874.5 436.831 874.5 437.5H875.5ZM875.459 431.474C875.441 430.138 875.417 428.802 875.387 427.468L874.388 427.491C874.418 428.822 874.442 430.154 874.459 431.488L875.459 431.474ZM875.28 423.471C875.238 422.14 875.19 420.81 875.136 419.482L874.137 419.523C874.191 420.848 874.238 422.174 874.28 423.502L875.28 423.471ZM874.957 415.503C874.891 414.166 874.819 412.83 874.741 411.496L873.743 411.555C873.82 412.886 873.892 414.218 873.958 415.552L874.957 415.503ZM874.488 407.493C874.398 406.161 874.302 404.83 874.2 403.5L873.203 403.577C873.305 404.903 873.401 406.231 873.491 407.561L874.488 407.493ZM873.876 399.517C873.762 398.191 873.642 396.867 873.516 395.544L872.521 395.639C872.646 396.958 872.766 398.28 872.88 399.603L873.876 399.517ZM873.121 391.571C872.982 390.239 872.837 388.909 872.686 387.581L871.693 387.693C871.843 389.018 871.988 390.345 872.126 391.674L873.121 391.571ZM872.217 383.601C872.054 382.277 871.886 380.954 871.711 379.633L870.72 379.764C870.894 381.082 871.062 382.402 871.224 383.723L872.217 383.601ZM871.171 375.676C870.984 374.359 870.793 373.044 870.595 371.73L869.606 371.879C869.803 373.19 869.995 374.502 870.18 375.816L871.171 375.676ZM869.98 367.771C869.769 366.45 869.551 365.131 869.328 363.815L868.342 363.982C868.565 365.295 868.782 366.611 868.992 367.928L869.98 367.771ZM868.642 359.871C868.407 358.558 868.166 357.248 867.92 355.939L866.937 356.124C867.183 357.43 867.423 358.737 867.657 360.047L868.642 359.871ZM867.163 352.02C866.904 350.712 866.64 349.407 866.37 348.104L865.391 348.307C865.66 349.607 865.924 350.909 866.182 352.214L867.163 352.02ZM865.537 344.181C865.254 342.875 864.965 341.572 864.67 340.271L863.695 340.492C863.989 341.79 864.277 343.091 864.56 344.393L865.537 344.181ZM863.768 336.374C863.461 335.077 863.149 333.782 862.831 332.49L861.86 332.729C862.177 334.018 862.489 335.31 862.795 336.604L863.768 336.374ZM861.86 328.62C861.529 327.325 861.192 326.032 860.849 324.742L859.882 324.999C860.224 326.286 860.561 327.576 860.891 328.868L861.86 328.62ZM859.802 320.874C859.448 319.588 859.087 318.303 858.721 317.021L857.76 317.296C858.125 318.575 858.484 319.856 858.838 321.14L859.802 320.874ZM857.606 313.182C857.229 311.905 856.846 310.63 856.457 309.358L855.501 309.65C855.889 310.919 856.271 312.191 856.647 313.465L857.606 313.182ZM855.271 305.538C854.869 304.264 854.461 302.992 854.048 301.722L853.097 302.032C853.509 303.299 853.916 304.568 854.318 305.839L855.271 305.538ZM852.79 297.922C852.365 296.657 851.935 295.395 851.499 294.136L850.554 294.463C850.989 295.72 851.418 296.979 851.842 298.24L852.79 297.922ZM850.174 290.366C849.727 289.112 849.274 287.86 848.816 286.611L847.877 286.956C848.334 288.202 848.786 289.451 849.232 290.702L850.174 290.366ZM847.418 282.855C846.946 281.606 846.469 280.359 845.987 279.115L845.054 279.477C845.536 280.718 846.012 281.962 846.482 283.208L847.418 282.855ZM844.522 275.392C844.029 274.154 843.53 272.918 843.025 271.686L842.1 272.064C842.603 273.294 843.101 274.527 843.593 275.762L844.522 275.392ZM841.495 267.996C840.978 266.765 840.456 265.537 839.928 264.312L839.009 264.708C839.536 265.93 840.057 267.155 840.573 268.383L841.495 267.996ZM838.326 260.642C837.786 259.421 837.242 258.204 836.692 256.989L835.781 257.402C836.33 258.613 836.873 259.828 837.411 261.046L838.326 260.642ZM835.025 253.354C834.464 252.145 833.898 250.939 833.327 249.737L832.423 250.166C832.994 251.366 833.558 252.569 834.118 253.775L835.025 253.354ZM831.594 246.133C831.009 244.932 830.42 243.734 829.825 242.539L828.93 242.985C829.523 244.177 830.111 245.372 830.694 246.57L831.594 246.133ZM828.025 238.965C827.419 237.776 826.809 236.591 826.193 235.409L825.306 235.871C825.921 237.051 826.53 238.233 827.134 239.419L828.025 238.965ZM824.33 231.872C823.703 230.696 823.071 229.523 822.435 228.354L821.556 228.832C822.192 229.999 822.822 231.169 823.447 232.342L824.33 231.872ZM820.504 224.845C819.855 223.679 819.201 222.516 818.541 221.357L817.672 221.851C818.33 223.008 818.982 224.168 819.63 225.331L820.504 224.845ZM816.548 217.888C815.879 216.735 815.204 215.585 814.525 214.439L813.665 214.949C814.343 216.093 815.016 217.24 815.684 218.39L816.548 217.888ZM812.471 211.01C811.78 209.869 811.084 208.73 810.383 207.596L809.532 208.121C810.231 209.253 810.926 210.389 811.615 211.528L812.471 211.01ZM808.263 204.2C807.552 203.072 806.835 201.947 806.114 200.826L805.273 201.367C805.992 202.486 806.707 203.608 807.417 204.734L808.263 204.2ZM803.934 197.472C803.203 196.358 802.466 195.247 801.725 194.14L800.894 194.696C801.634 195.801 802.369 196.909 803.098 198.021L803.934 197.472ZM799.485 190.826C798.732 189.724 797.975 188.625 797.213 187.531L796.392 188.102C797.152 189.194 797.908 190.29 798.659 191.39L799.485 190.826ZM794.911 184.257C794.14 183.17 793.363 182.086 792.581 181.006L791.771 181.592C792.551 182.67 793.326 183.751 794.096 184.836L794.911 184.257ZM790.222 177.777C789.431 176.704 788.635 175.635 787.834 174.569L787.035 175.17C787.834 176.233 788.628 177.3 789.418 178.371L790.222 177.777ZM785.415 171.381C784.603 170.322 783.788 169.267 782.967 168.216L782.179 168.831C782.997 169.88 783.811 170.933 784.621 171.989L785.415 171.381ZM780.491 165.074C779.661 164.03 778.827 162.991 777.987 161.955L777.21 162.585C778.048 163.618 778.88 164.655 779.708 165.696L780.491 165.074ZM775.456 158.859C774.607 157.831 773.753 156.806 772.894 155.785L772.129 156.428C772.985 157.447 773.837 158.47 774.685 159.496L775.456 158.859ZM770.306 152.734C769.438 151.721 768.566 150.713 767.689 149.708L766.936 150.365C767.81 151.368 768.681 152.374 769.546 153.385L770.306 152.734ZM765.046 146.705C764.161 145.709 763.271 144.716 762.376 143.727L761.635 144.398C762.527 145.385 763.415 146.375 764.299 147.369L765.046 146.705ZM759.679 140.773C758.775 139.792 757.867 138.816 756.954 137.843L756.225 138.528C757.136 139.498 758.042 140.472 758.943 141.451L759.679 140.773ZM754.204 134.938C753.282 133.974 752.357 133.015 751.427 132.059L750.71 132.756C751.638 133.71 752.561 134.667 753.481 135.629L754.204 134.938ZM748.624 129.205C747.685 128.258 746.742 127.315 745.795 126.376L745.091 127.086C746.036 128.023 746.977 128.964 747.914 129.909L748.624 129.205ZM742.941 123.573C741.985 122.643 741.026 121.718 740.061 120.796L739.371 121.519C740.332 122.439 741.29 123.362 742.244 124.29L742.941 123.573ZM737.157 118.046C736.184 117.133 735.208 116.225 734.227 115.321L733.549 116.057C734.528 116.958 735.502 117.864 736.472 118.775L737.157 118.046ZM731.273 112.624C730.284 111.729 729.291 110.839 728.295 109.954L727.63 110.701C728.625 111.585 729.615 112.473 730.602 113.365L731.273 112.624ZM725.292 107.31C724.287 106.434 723.279 105.562 722.266 104.694L721.615 105.454C722.626 106.319 723.632 107.189 724.635 108.064L725.292 107.31ZM719.215 102.106C718.194 101.247 717.169 100.393 716.14 99.5442L715.504 100.315C716.53 101.163 717.553 102.014 718.571 102.871L719.215 102.106ZM713.045 97.0126C712.009 96.1733 710.97 95.3387 709.926 94.5088L709.304 95.2914C710.345 96.1195 711.382 96.9522 712.415 97.7895L713.045 97.0126ZM706.784 92.033C705.733 91.2124 704.677 90.3965 703.619 89.5853L703.01 90.3792C704.067 91.1885 705.12 92.0025 706.168 92.8212L706.784 92.033ZM700.43 87.166C699.365 86.3651 698.296 85.5689 697.223 84.7775L696.629 85.5823C697.7 86.3719 698.767 87.1663 699.83 87.9654L700.43 87.166ZM693.994 82.4185C692.914 81.637 691.83 80.8603 690.743 80.0884L690.164 80.9038C691.249 81.674 692.33 82.4489 693.408 83.2287L693.994 82.4185ZM687.469 77.7873C686.375 77.0251 685.276 76.2678 684.174 75.5154L683.61 76.3412C684.71 77.0919 685.806 77.8475 686.898 78.6079L687.469 77.7873ZM680.86 73.2747C679.753 72.5334 678.642 71.7971 677.528 71.0657L676.979 71.9017C678.091 72.6314 679.199 73.3661 680.304 74.1057L680.86 73.2747ZM674.174 68.8864C673.053 68.1649 671.928 67.4484 670.8 66.7369L670.266 67.5828C671.392 68.2926 672.514 69.0075 673.633 69.7273L674.174 68.8864ZM667.404 64.6175C666.269 63.9163 665.131 63.2202 663.99 62.5292L663.472 63.3847C664.611 64.0741 665.746 64.7686 666.879 65.4682L667.404 64.6175ZM660.561 60.4751C659.415 59.7955 658.265 59.1209 657.112 58.4515L656.61 59.3163C657.76 59.9842 658.907 60.6572 660.051 61.3353L660.561 60.4751ZM653.643 56.4585C652.484 55.7994 651.321 55.1453 650.155 54.4965L649.669 55.3703C650.832 56.0177 651.992 56.6702 653.149 57.3279L653.643 56.4585ZM646.646 52.5654C645.477 51.9285 644.304 51.2968 643.128 50.6703L642.658 51.5529C643.831 52.178 645.001 52.8082 646.168 53.4436L646.646 52.5654ZM639.591 48.8071C638.409 48.1912 637.224 47.5806 636.035 46.9752L635.581 47.8663C636.767 48.4703 637.95 49.0795 639.129 49.6939L639.591 48.8071ZM632.461 45.175C631.266 44.5802 630.068 43.9907 628.867 43.4065L628.43 44.3057C629.628 44.8886 630.823 45.4767 632.015 46.0702L632.461 45.175ZM625.263 41.6735C624.061 41.102 622.855 40.5358 621.646 39.9749L621.225 40.882C622.431 41.4416 623.634 42.0065 624.834 42.5767L625.263 41.6735ZM618.011 38.3084C616.796 37.7583 615.579 37.2135 614.358 36.6742L613.954 37.5889C615.172 38.127 616.387 38.6705 617.599 39.2193L618.011 38.3084ZM610.688 35.0724C609.463 34.5445 608.235 34.0221 607.004 33.5051L606.617 34.427C607.845 34.9428 609.07 35.4641 610.292 35.9908L610.688 35.0724ZM603.314 31.975C602.082 31.4704 600.846 30.9713 599.608 30.4777L599.238 31.4066C600.473 31.8991 601.706 32.3971 602.936 32.9005L603.314 31.975ZM595.885 29.0133C594.641 28.5307 593.394 28.0536 592.145 27.5821L591.792 28.5176C593.038 28.9881 594.282 29.4641 595.523 29.9456L595.885 29.0133ZM588.389 26.1841C587.14 25.7257 585.888 25.2729 584.634 24.8256L584.298 25.7675C585.549 26.2138 586.798 26.6656 588.044 27.1229L588.389 26.1841ZM580.864 23.5009C579.605 23.065 578.343 22.6346 577.078 22.2098L576.76 23.1577C578.021 23.5815 579.28 24.0109 580.537 24.4459L580.864 23.5009ZM573.278 20.9523C572.008 20.5388 570.736 20.1309 569.462 19.7287L569.161 20.6823C570.432 21.0836 571.701 21.4906 572.968 21.9031L573.278 20.9523ZM565.642 18.5427C564.37 18.154 563.095 17.771 561.818 17.3936L561.535 18.3527C562.809 18.7292 564.081 19.1113 565.35 19.4991L565.642 18.5427ZM557.979 16.2785C556.697 15.9125 555.412 15.5522 554.126 15.1976L553.86 16.1617C555.144 16.5155 556.425 16.875 557.704 17.2401L557.979 16.2785ZM550.258 14.1511C548.968 13.8083 547.675 13.4712 546.38 13.14L546.132 14.1088C547.424 14.4393 548.714 14.7755 550.001 15.1175L550.258 14.1511ZM542.51 12.1688C541.218 11.8508 539.923 11.5386 538.626 11.2321L538.396 12.2053C539.69 12.5111 540.982 12.8226 542.271 13.1399L542.51 12.1688ZM534.729 10.3299C533.428 10.035 532.124 9.74586 530.819 9.46254L530.607 10.4398C531.909 10.7225 533.21 11.0109 534.508 11.3052L534.729 10.3299ZM526.895 8.63008C525.592 8.35988 524.287 8.09546 522.98 7.83686L522.786 8.81785C524.09 9.07585 525.392 9.33967 526.692 9.60925L526.895 8.63008ZM519.061 7.08012C517.752 6.83368 516.442 6.59306 515.129 6.35829L514.953 7.34267C516.263 7.5769 517.57 7.81697 518.876 8.06284L519.061 7.08012ZM511.185 5.67154C509.868 5.4485 508.55 5.23133 507.229 5.02006L507.071 6.0075C508.389 6.21829 509.704 6.43496 511.018 6.6575L511.185 5.67154ZM503.269 4.40519C501.956 4.20741 500.641 4.01546 499.324 3.82937L499.184 4.81954C500.498 5.0052 501.81 5.19671 503.121 5.39404L503.269 4.40519ZM495.366 3.28871C494.046 3.11437 492.723 2.94591 491.398 2.78337L491.276 3.77592C492.598 3.93809 493.918 4.10617 495.236 4.28011L495.366 3.28871ZM487.419 2.3135C486.091 2.16282 484.761 2.01807 483.429 1.87929L483.325 2.87391C484.654 3.01237 485.981 3.15679 487.306 3.30713L487.419 2.3135ZM479.455 1.48345C478.133 1.35776 476.808 1.23794 475.482 1.12404L475.397 2.12037C476.72 2.23402 478.041 2.35356 479.361 2.47897L479.455 1.48345ZM471.499 0.800071C470.17 0.698009 468.839 0.601882 467.506 0.511716L467.439 1.50943C468.768 1.5994 470.096 1.69531 471.423 1.79714L471.499 0.800071ZM463.503 0.259125C462.169 0.181021 460.834 0.108887 459.497 0.0427495L459.447 1.04153C460.781 1.10752 462.114 1.17949 463.445 1.25742L463.503 0.259125ZM455.517 -0.13616C454.189 -0.189891 452.86 -0.23771 451.529 -0.27959L451.497 0.719915C452.825 0.761701 454.152 0.809412 455.477 0.863023L455.517 -0.13616ZM447.531 -0.387391C446.197 -0.417369 444.862 -0.441383 443.525 -0.459407L443.511 0.540502C444.845 0.558486 446.178 0.582446 447.509 0.612357L447.531 -0.387391ZM439.51 -0.495485C438.84 -0.498494 438.17 -0.5 437.5 -0.5V0.5C438.169 0.5 438.837 0.501503 439.505 0.504504L439.51 -0.495485ZM437.5 -0.5H435.511V0.5H437.5V-0.5ZM431.534 -0.5H427.557V0.5H431.534V-0.5ZM423.58 -0.5H419.602V0.5H423.58V-0.5ZM415.625 -0.5H411.648V0.5H415.625V-0.5ZM407.67 -0.5H403.693V0.5H407.67V-0.5ZM399.716 -0.5H395.739V0.5H399.716V-0.5ZM391.761 -0.5H387.784V0.5H391.761V-0.5ZM383.807 -0.5H379.83V0.5H383.807V-0.5ZM375.852 -0.5H371.875V0.5H375.852V-0.5ZM367.898 -0.5H363.92V0.5H367.898V-0.5ZM359.943 -0.5H355.966V0.5H359.943V-0.5ZM351.989 -0.5H348.011V0.5H351.989V-0.5ZM344.034 -0.5H340.057V0.5H344.034V-0.5ZM336.08 -0.5H332.102V0.5H336.08V-0.5ZM328.125 -0.5H324.148V0.5H328.125V-0.5ZM320.17 -0.5H316.193V0.5H320.17V-0.5ZM312.216 -0.5H308.239V0.5H312.216V-0.5ZM304.261 -0.5H300.284V0.5H304.261V-0.5ZM296.307 -0.5H292.33V0.5H296.307V-0.5ZM288.352 -0.5H284.375V0.5H288.352V-0.5ZM280.398 -0.5H276.42V0.5H280.398V-0.5ZM272.443 -0.5H268.466V0.5H272.443V-0.5ZM264.489 -0.5H260.511V0.5H264.489V-0.5ZM256.534 -0.5H252.557V0.5H256.534V-0.5ZM248.579 -0.5H244.602V0.5H248.579V-0.5ZM240.625 -0.5H236.648V0.5H240.625V-0.5ZM232.67 -0.5H228.693V0.5H232.67V-0.5ZM224.716 -0.5H220.738V0.5H224.716V-0.5ZM216.761 -0.5H212.784V0.5H216.761V-0.5ZM208.807 -0.5H204.829V0.5H208.807V-0.5ZM200.852 -0.5H196.875V0.5H200.852V-0.5ZM192.898 -0.5H188.92V0.5H192.898V-0.5ZM184.943 -0.5H180.966V0.5H184.943V-0.5ZM176.988 -0.5H173.011V0.5H176.988V-0.5ZM169.034 -0.5H165.057V0.5H169.034V-0.5ZM161.079 -0.5H157.102V0.5H161.079V-0.5ZM153.125 -0.5H149.148V0.5H153.125V-0.5ZM145.17 -0.5H141.193V0.5H145.17V-0.5ZM137.216 -0.5H133.239V0.5H137.216V-0.5ZM129.261 -0.5H125.284V0.5H129.261V-0.5ZM121.307 -0.5H117.329V0.5H121.307V-0.5ZM113.352 -0.5H109.375V0.5H113.352V-0.5ZM105.398 -0.5H101.42V0.5H105.398V-0.5ZM97.4431 -0.5H93.4659V0.5H97.4431V-0.5ZM89.4886 -0.5H85.5114V0.5H89.4886V-0.5ZM81.5341 -0.5H77.5568V0.5H81.5341V-0.5ZM73.5796 -0.5H69.6023V0.5H73.5796V-0.5ZM65.625 -0.5H61.6478V0.5H65.625V-0.5ZM57.6705 -0.5H53.6932V0.5H57.6705V-0.5ZM49.716 -0.5H45.7387V0.5H49.716V-0.5ZM41.7615 -0.5H37.7842V0.5H41.7615V-0.5ZM33.8069 -0.5H29.8296V0.5H33.8069V-0.5ZM25.8524 -0.5H21.8751V0.5H25.8524V-0.5ZM17.8979 -0.5H13.9206V0.5H17.8979V-0.5ZM9.94333 -0.5H5.96606V0.5H9.94333V-0.5ZM1.98879 -0.5H0V0.5H1.98879V-0.5Z" fill="#051E3D" mask="url(#path-1-inside-1)"/>
</svg>
