<svg width="34" height="34" viewBox="0 0 34 34" fill="none" xmlns="http://www.w3.org/2000/svg">
<path fill-rule="evenodd" clip-rule="evenodd" d="M14.5073 2.53163C13.39 2.53163 12.4396 3.308 12.1728 4.35441H21.1439C20.8771 3.308 19.9266 2.53163 18.8094 2.53163H14.5073ZM23.6785 4.35441H26.9802C30.4819 4.35441 33.3333 7.24047 33.3333 10.7848C33.3333 10.7848 33.2333 12.2852 33.1999 14.3746C33.1966 14.54 33.1166 14.702 32.9848 14.7999C32.1828 15.3923 31.4491 15.8818 31.3824 15.9155C28.6143 17.7721 25.3977 19.0784 21.971 19.7282C21.7475 19.772 21.5274 19.6556 21.414 19.4564C20.4536 17.7923 18.6593 16.7088 16.6583 16.7088C14.6707 16.7088 12.8598 17.7805 11.8709 19.4463C11.7559 19.6421 11.5391 19.7552 11.3173 19.713C7.91896 19.0615 4.70235 17.7569 1.95098 15.9324L0.350175 14.8185C0.216775 14.7341 0.1334 14.5822 0.1334 14.4134C0.083375 13.5527 0 10.7848 0 10.7848C0 7.24047 2.85143 4.35441 6.35318 4.35441H9.63815C9.95498 1.90716 12.006 0 14.5073 0H18.8094C21.3107 0 23.3617 1.90716 23.6785 4.35441ZM32.7664 18.0254L32.6997 18.0591C29.3313 20.3207 25.2793 21.8228 21.0272 22.4473C20.4269 22.5317 19.8266 22.1435 19.6598 21.5359C19.293 20.152 18.109 19.2406 16.6917 19.2406H16.675H16.6416C15.2243 19.2406 14.0403 20.152 13.6735 21.5359C13.5067 22.1435 12.9064 22.5317 12.3061 22.4473C8.05402 21.8228 4.00199 20.3207 0.633641 18.0591C0.616966 18.0423 0.450216 17.941 0.316816 18.0254C0.166741 18.1098 0.166741 18.3123 0.166741 18.3123L0.283466 26.9199C0.283466 30.4641 3.11822 33.3333 6.61997 33.3333H26.6967C30.1984 33.3333 33.0332 30.4641 33.0332 26.9199L33.1666 18.3123C33.1666 18.3123 33.1666 18.1098 33.0165 18.0254C32.9331 17.9748 32.8331 17.9916 32.7664 18.0254ZM17.9089 25.0971C17.9089 25.8059 17.3587 26.3629 16.6583 26.3629C15.9746 26.3629 15.4077 25.8059 15.4077 25.0971V22.9199C15.4077 22.2279 15.9746 21.6541 16.6583 21.6541C17.3587 21.6541 17.9089 22.2279 17.9089 22.9199V25.0971Z" fill="white"/>
</svg>
